<svg width="120" height="120" viewBox="0 0 120 120" fill="none" xmlns="http://www.w3.org/2000/svg">
<path d="M56.6293 22.5226C56.8426 20.2026 56.8373 18.0106 57.2693 15.904C58.816 8.30396 65.6533 2.76796 73.4186 2.68262C75.664 2.65596 77.9093 2.66662 80.1546 2.68262C82.256 2.69329 83.7493 4.08529 83.7706 6.01596C83.792 7.99462 82.2826 9.39196 80.1173 9.42929C77.392 9.47729 74.624 9.28529 71.9413 9.65862C67.1093 10.336 63.696 14.4693 63.568 19.328C63.5413 20.336 63.568 21.344 63.568 22.6186C64.8746 22.1866 66.0906 21.8773 67.2213 21.3866C69.8933 20.224 72.464 18.8053 75.184 17.7813C89.376 12.4586 103.723 19.6266 108.459 34.32C110.485 40.6026 111.008 47.072 110.651 53.616C109.867 67.968 106.091 81.536 99.6426 94.352C96.6026 100.395 92.9333 106.032 88.032 110.768C84.8426 113.851 81.2906 116.347 76.8693 117.339C72.5866 118.299 68.784 117.44 65.5786 114.331C64.8533 113.627 64.1386 112.912 63.3866 112.24C61.4346 110.496 58.9546 110.501 57.0026 112.256C56.416 112.779 55.856 113.333 55.3066 113.899C51.52 117.771 47.0346 118.571 42.0106 116.896C37.6266 115.429 34.1813 112.576 31.1093 109.243C24.9333 102.549 20.7146 94.6613 17.2906 86.304C13.7066 77.5413 11.264 68.4586 10.1813 59.0453C9.21595 50.656 9.26395 42.2986 11.9146 34.16C14.32 26.768 18.672 20.9706 26.1226 18.0853C33.6533 15.168 41.1146 15.4666 48.3893 19.1146C50.3573 20.1013 52.3786 20.9813 54.4 21.856C55.1093 22.1653 55.888 22.3093 56.6293 22.528V22.5226ZM77.0293 77.04C77.5466 77.04 77.9466 77.04 78.3466 77.04C81.2266 77.04 84.112 77.056 86.992 77.0346C89.0133 77.0186 90.48 75.6053 90.5013 73.712C90.5226 71.7706 89.04 70.3306 86.96 70.3093C84.5653 70.288 82.1706 70.3093 79.7706 70.3093C78.8853 70.3093 78 70.3093 77.1146 70.3093V63.568C77.6053 63.568 78.016 63.568 78.4266 63.568C81.3066 63.568 84.192 63.5893 87.072 63.5573C89.0666 63.536 90.5226 62.0586 90.5013 60.16C90.48 58.3093 89.0453 56.8853 87.104 56.8373C86.0213 56.8106 84.9333 56.832 83.8453 56.832C81.6106 56.832 79.376 56.832 77.024 56.832C77.024 55.6853 77.04 54.6453 77.024 53.6106C76.9866 51.4986 75.6 50.128 73.4773 50.096C72.4426 50.08 71.408 50.096 70.288 50.096C70.288 46.7466 70.2933 43.5306 70.288 40.32C70.2826 38.128 68.9013 36.6186 66.928 36.6186C64.9706 36.6186 63.568 38.144 63.5626 40.32C63.552 43.168 63.5626 46.0106 63.5626 48.8586C63.5626 49.2533 63.5626 49.648 63.5626 50.0373H56.8213C56.8213 49.616 56.8213 49.2533 56.8213 48.8853C56.8213 46.0373 56.8266 43.1946 56.8213 40.3466C56.816 38.1386 55.4613 36.6346 53.4933 36.6186C51.4986 36.5973 50.1013 38.144 50.096 40.4053C50.0853 43.0613 50.096 45.7226 50.096 48.3786C50.096 48.928 50.096 49.472 50.096 50.096C48.9866 50.096 48.0213 50.0906 47.0506 50.096C44.736 50.1173 43.376 51.4826 43.36 53.8133C43.3493 54.8053 43.36 55.7973 43.36 56.832C39.8933 56.832 36.5973 56.8106 33.3066 56.8426C31.3866 56.8586 29.92 58.32 29.888 60.1493C29.856 62.016 31.3493 63.5306 33.3173 63.5626C35.5253 63.5946 37.7333 63.5733 39.9413 63.5733C41.0506 63.5733 42.16 63.5733 43.28 63.5733V70.3146C42.7946 70.3146 42.384 70.3146 41.9786 70.3146C39.0613 70.3146 36.1386 70.288 33.2213 70.3253C31.4613 70.3466 30.0746 71.6853 29.904 73.3813C29.7386 75.0346 30.9386 76.6453 32.6346 76.976C33.104 77.0666 33.6053 77.04 34.0906 77.0453C37.1466 77.0453 40.208 77.0453 43.3706 77.0453C43.3706 77.9733 43.3706 78.7893 43.3706 79.6053C43.3706 82.5493 44.592 83.7866 47.504 83.7866C48.352 83.7866 49.1946 83.7866 50.112 83.7866C50.112 87.152 50.1013 90.368 50.112 93.5786C50.1226 95.744 51.5413 97.2746 53.4986 97.2586C55.4666 97.248 56.832 95.7333 56.8373 93.536C56.848 90.688 56.8373 87.8453 56.8373 84.9973C56.8373 84.608 56.8373 84.2133 56.8373 83.8453H63.5786C63.5786 87.1573 63.5626 90.4106 63.5786 93.6586C63.5893 95.744 65.024 97.2533 66.9386 97.2533C68.864 97.2533 70.288 95.76 70.304 93.6693C70.32 90.784 70.304 87.904 70.304 85.0186C70.304 84.624 70.304 84.2293 70.304 83.776C71.4773 83.776 72.48 83.7866 73.488 83.776C75.6106 83.744 77.0026 82.368 77.0346 80.2613C77.0506 79.2213 77.0346 78.1866 77.0346 77.04H77.0293Z" fill="url(#paint0_linear_130_2103)"/>
<path d="M77.0293 77.04C77.0293 78.1867 77.0453 79.2267 77.0293 80.2613C76.9919 82.368 75.6053 83.744 73.4826 83.776C72.4746 83.792 71.4666 83.776 70.2986 83.776C70.2986 84.2293 70.2986 84.624 70.2986 85.0187C70.2986 87.904 70.3093 90.784 70.2986 93.6693C70.2879 95.76 68.8639 97.2587 66.9333 97.2533C65.0133 97.2533 63.5839 95.744 63.5733 93.6587C63.5573 90.4107 63.5733 87.1573 63.5733 83.8453H56.8319C56.8319 84.2133 56.8319 84.6027 56.8319 84.9973C56.8319 87.8453 56.8373 90.688 56.8319 93.536C56.8266 95.7333 55.4613 97.248 53.4933 97.2587C51.5359 97.2693 50.1119 95.744 50.1066 93.5787C50.0959 90.3627 50.1066 87.152 50.1066 83.7867C49.1946 83.7867 48.3466 83.7867 47.4986 83.7867C44.5866 83.7867 43.3706 82.5493 43.3653 79.6053C43.3653 78.7893 43.3653 77.9787 43.3653 77.0453C40.2026 77.0453 37.1466 77.0453 34.0853 77.0453C33.5999 77.0453 33.1039 77.072 32.6293 76.976C30.9333 76.64 29.7333 75.0347 29.8986 73.3813C30.0693 71.68 31.4613 70.3467 33.2159 70.3253C36.1333 70.288 39.0559 70.3147 41.9733 70.3147C42.3786 70.3147 42.7893 70.3147 43.2746 70.3147V63.5733C42.1599 63.5733 41.0506 63.5733 39.9359 63.5733C37.7279 63.5733 35.5199 63.6 33.3119 63.5627C31.3439 63.5307 29.8506 62.016 29.8826 60.1493C29.9146 58.3253 31.3813 56.864 33.3013 56.8427C36.5919 56.8107 39.8826 56.832 43.3546 56.832C43.3546 55.7973 43.3493 54.8053 43.3546 53.8133C43.3759 51.4773 44.7306 50.112 47.0453 50.096C48.0106 50.0907 48.9813 50.096 50.0906 50.096C50.0906 49.472 50.0906 48.928 50.0906 48.3787C50.0906 45.7227 50.0853 43.0613 50.0906 40.4053C50.0959 38.1493 51.4933 36.6027 53.4879 36.6187C55.4559 36.64 56.8106 38.144 56.8159 40.3467C56.8266 43.1947 56.8159 46.0373 56.8159 48.8853C56.8159 49.248 56.8159 49.616 56.8159 50.0373H63.5573C63.5573 49.648 63.5573 49.2533 63.5573 48.8587C63.5573 46.0107 63.5466 43.168 63.5573 40.32C63.5679 38.144 64.9653 36.6187 66.9226 36.6187C68.8959 36.6187 70.2773 38.128 70.2826 40.32C70.2933 43.5307 70.2826 46.7467 70.2826 50.096C71.4026 50.096 72.4373 50.0853 73.4719 50.096C75.5946 50.128 76.9813 51.4987 77.0186 53.6107C77.0346 54.6507 77.0186 55.6853 77.0186 56.832C79.3653 56.832 81.6053 56.832 83.8399 56.832C84.9279 56.832 86.0106 56.8107 87.0986 56.8373C89.0346 56.8853 90.4746 58.3093 90.4959 60.16C90.5173 62.0587 89.0559 63.536 87.0666 63.5573C84.1866 63.5893 81.3013 63.568 78.4213 63.568C78.0106 63.568 77.6053 63.568 77.1093 63.568V70.3093C77.9946 70.3093 78.8799 70.3093 79.7653 70.3093C82.1599 70.3093 84.5546 70.2933 86.9546 70.3093C89.0346 70.3253 90.5173 71.7707 90.4959 73.712C90.4746 75.6053 89.0079 77.0187 86.9866 77.0347C84.1066 77.056 81.2213 77.04 78.3413 77.04C77.9413 77.04 77.5359 77.04 77.0239 77.04H77.0293ZM70.2186 76.992V56.912H50.1386V76.992H70.2186Z" fill="#0DFFEB"/>
<path d="M70.2186 76.9867H50.1386V56.9067H70.2186V76.9867ZM60.1759 63.5627C58.3519 63.5733 56.8159 65.1253 56.8266 66.944C56.8373 68.768 58.3893 70.304 60.2133 70.2933C62.0479 70.2827 63.5626 68.752 63.5519 66.912C63.5413 65.072 62.0159 63.5573 60.1759 63.568V63.5627Z" fill="url(#paint1_linear_130_2103)"/>
<path d="M60.1759 63.5626C62.0159 63.552 63.5413 65.0666 63.5519 66.9066C63.5626 68.7466 62.0479 70.2773 60.2133 70.288C58.3893 70.2986 56.8373 68.7626 56.8266 66.9386C56.8159 65.12 58.3519 63.568 60.1759 63.5573V63.5626Z" fill="#0DFFEB"/>
<defs>
<linearGradient id="paint0_linear_130_2103" x1="9.59995" y1="60.192" x2="110.747" y2="60.192" gradientUnits="userSpaceOnUse">
<stop stop-color="#5D19FF"/>
<stop offset="1" stop-color="#018EFF"/>
</linearGradient>
<linearGradient id="paint1_linear_130_2103" x1="50.1386" y1="66.9493" x2="70.2186" y2="66.9493" gradientUnits="userSpaceOnUse">
<stop stop-color="#5D19FF"/>
<stop offset="1" stop-color="#018EFF"/>
</linearGradient>
</defs>
</svg>
