<svg width="121" height="120" viewBox="0 0 121 120" fill="none" xmlns="http://www.w3.org/2000/svg">
<path d="M36.7447 2.68119C37.2941 2.68119 37.7314 2.68119 38.1687 2.68119C57.47 2.68119 76.7714 2.68119 96.0727 2.68119C103.875 2.68119 108.937 7.74786 108.937 15.5665C108.937 36.1959 108.937 56.8305 108.937 77.4599V78.9372C106.915 78.3292 105.011 77.7532 103.113 77.1772C95.2567 74.7932 87.3954 72.4252 79.5447 70.0145C75.8807 68.8892 72.606 69.5292 69.8914 72.2279C67.1607 74.9479 66.606 78.2492 67.726 81.8919C68.846 85.5292 69.9447 89.1719 71.0487 92.8145C71.198 93.2999 71.3154 93.7959 71.4594 94.3452H36.7447V2.68119ZM73.5394 35.0599C77.39 35.0599 81.2354 35.0599 85.086 35.0599C86.9687 35.0599 88.8567 35.1132 90.7394 35.0332C93.2034 34.9319 94.7447 32.5905 93.8914 30.3665C93.3154 28.8625 92.1047 28.1585 90.014 28.1585C78.99 28.1585 67.9607 28.1585 56.9367 28.1585C56.6167 28.1585 56.2967 28.1585 55.9767 28.1905C54.5634 28.3239 53.5874 29.0759 53.0754 30.3772C52.142 32.7345 53.8487 35.0332 56.5847 35.0492C62.238 35.0812 67.8914 35.0599 73.5447 35.0599H73.5394ZM73.5127 49.4705C73.5127 49.4705 73.5127 49.4812 73.5127 49.4865C76.158 49.4865 78.8087 49.5292 81.454 49.4599C82.222 49.4385 83.0594 49.2359 83.726 48.8679C84.9474 48.1905 85.486 46.6545 85.1767 45.3319C84.8141 43.7905 83.71 42.6759 82.174 42.6599C76.3607 42.6065 70.542 42.6385 64.7287 42.6545C64.4194 42.6545 64.094 42.7665 63.806 42.8892C62.2967 43.5185 61.4647 45.0812 61.758 46.7079C62.03 48.2332 63.3367 49.4279 64.9687 49.4652C67.8167 49.5239 70.6647 49.4812 73.5127 49.4812V49.4705ZM30.8194 2.78252C28.0141 2.78252 25.2567 2.48919 22.5794 2.83586C14.6007 3.86519 9.34738 10.1105 9.34738 18.2919C9.33138 46.3825 9.32605 74.4732 9.34738 102.559C9.34738 103.865 9.56605 105.209 9.91272 106.468C11.7367 113.135 17.614 117.513 24.782 117.524C42.5154 117.551 60.2434 117.535 77.9767 117.535H78.8087C78.1207 115.545 77.406 113.652 76.8247 111.716C76.5634 110.841 76.1954 110.553 75.2567 110.553C60.014 110.585 44.7714 110.58 29.5234 110.575C27.6781 110.575 25.8327 110.607 23.9874 110.553C20.7127 110.452 18.1207 108.559 17.0594 105.508C15.2781 100.388 18.1687 94.1265 24.7927 94.4039C26.782 94.4839 28.7821 94.4145 30.8194 94.4145V2.78252Z" fill="url(#paint0_linear_130_2088)"/>
<path d="M113.049 88.8679C113.033 90.4732 112.179 91.5986 110.419 92.2012C106.099 93.6786 101.785 95.1772 97.438 96.5586C95.7367 97.0972 94.766 98.1106 94.2274 99.7852C92.8514 104.057 91.3847 108.292 89.9447 112.543C89.2834 114.5 88.0994 115.444 86.4087 115.396C84.766 115.348 83.6514 114.404 83.0594 112.468C79.7634 101.663 76.4834 90.8572 73.1927 80.0466C72.766 78.6332 72.894 77.3426 73.9874 76.2652C75.0327 75.2359 76.286 75.0439 77.662 75.4652C88.5794 78.7932 99.4967 82.1106 110.403 85.4546C112.217 86.0092 113.065 87.1826 113.049 88.8732V88.8679Z" fill="#5D19FF"/>
<path d="M73.5394 35.0546C67.8861 35.0546 62.2327 35.0759 56.5794 35.0439C53.8487 35.0279 52.1367 32.7293 53.0701 30.3719C53.5874 29.0706 54.5634 28.3186 55.9714 28.1853C56.2914 28.1533 56.6114 28.1533 56.9314 28.1533C67.9554 28.1533 78.9847 28.1533 90.0087 28.1533C92.0994 28.1533 93.3101 28.8573 93.8861 30.3613C94.7394 32.5853 93.1981 34.9266 90.7341 35.0279C88.8514 35.1079 86.9687 35.0493 85.0807 35.0546C81.2301 35.0546 77.3847 35.0546 73.5341 35.0546H73.5394Z" fill="#0DFFEB"/>
<path d="M73.5127 49.4706C70.6647 49.4706 67.8168 49.5132 64.9688 49.4546C63.3368 49.4226 62.0301 48.2226 61.7581 46.6972C61.4648 45.0706 62.2968 43.5079 63.8061 42.8786C64.0994 42.7559 64.4194 42.6492 64.7288 42.6439C70.5421 42.6279 76.3608 42.5959 82.1741 42.6492C83.7101 42.6652 84.8088 43.7852 85.1768 45.3212C85.4914 46.6439 84.9474 48.1799 83.7261 48.8572C83.0594 49.2252 82.2221 49.4279 81.4541 49.4492C78.8087 49.5186 76.1581 49.4759 73.5127 49.4759C73.5127 49.4759 73.5127 49.4652 73.5127 49.4599V49.4706Z" fill="#0DFFEB"/>
<defs>
<linearGradient id="paint0_linear_130_2088" x1="9.33138" y1="60.1052" x2="108.931" y2="60.1052" gradientUnits="userSpaceOnUse">
<stop stop-color="#5D19FF"/>
<stop offset="1" stop-color="#018EFF"/>
</linearGradient>
</defs>
</svg>
