<svg width="121" height="120" viewBox="0 0 121 120" fill="none" xmlns="http://www.w3.org/2000/svg">
<path d="M113.915 80.6294C111.547 80.592 109.184 80.5867 106.816 80.5921V64.7681C107.221 64.7681 107.547 64.7681 107.872 64.7681C109.883 64.7681 111.888 64.8161 113.899 64.7467C116.976 64.6454 118.987 61.7494 118.032 58.8801C117.424 57.0454 115.771 55.8721 113.675 55.8454C111.403 55.8187 109.131 55.8401 106.821 55.8401V40.2241C109.163 40.2241 111.44 40.2454 113.712 40.2187C115.755 40.1921 117.387 39.0401 118.016 37.2587C119.029 34.3734 116.987 31.4027 113.861 31.3174C111.488 31.2534 109.109 31.3067 106.64 31.3067C106.197 26.9281 104.523 23.1574 101.445 20.0694C98.3467 16.9547 94.544 15.2801 90.16 14.8214C90.16 13.5147 90.16 12.3254 90.16 11.1361C90.16 9.94672 90.192 8.75739 90.144 7.56806C90.016 4.49606 87.136 2.48539 84.2613 3.44539C82.4267 4.05872 81.2587 5.70672 81.232 7.80806C81.2053 10.1014 81.2267 12.3947 81.2267 14.7254H65.6053C65.6053 12.3201 65.6533 9.97872 65.5947 7.64272C65.5147 4.51206 62.576 2.45872 59.68 3.45072C57.856 4.07472 56.7093 5.72806 56.688 7.84006C56.6667 10.1334 56.6827 12.4214 56.6827 14.7094H41.0613C41.0613 12.3201 41.088 10.0214 41.056 7.71739C41.0293 5.68539 39.8507 4.05872 38.0587 3.44539C35.1573 2.45872 32.2293 4.51739 32.1547 7.65339C32.096 10.0214 32.144 12.3947 32.144 14.7467C22.6453 16.2507 17.1733 21.7014 15.584 31.0881C13.136 31.0881 10.752 31.0454 8.37867 31.1041C6.64534 31.1414 5.31734 31.9841 4.52801 33.5361C3.75467 35.0507 3.85601 36.5707 4.77867 37.9894C5.68001 39.3707 7.01867 40.0054 8.66134 40.0107C10.9547 40.0161 13.248 40.0107 15.552 40.0107V55.8561C13.0987 55.8561 10.72 55.8027 8.34667 55.8721C5.99467 55.9361 4.18134 57.7547 4.04267 60.0374C3.90401 62.2721 5.45067 64.2774 7.69601 64.6827C8.34667 64.8001 9.02934 64.7681 9.69601 64.7681C11.6533 64.7787 13.6053 64.7681 15.536 64.7681V80.3841C13.1413 80.3841 10.832 80.3574 8.52801 80.3894C6.50134 80.4214 4.87467 81.6107 4.27201 83.4081C3.30134 86.3147 5.36001 89.2214 8.50134 89.2907C10.8693 89.3441 13.2373 89.3014 15.568 89.3014C17.1307 98.8694 22.624 104.341 32.1387 105.872V107.083C32.1387 109.051 32.1013 111.024 32.1547 112.992C32.2187 115.499 34.1387 117.387 36.5653 117.408C39.0293 117.429 40.976 115.52 41.0613 112.965C41.088 112.149 41.072 111.328 41.072 110.512C41.072 108.965 41.072 107.419 41.072 105.872H56.6933C56.6933 108.256 56.6613 110.587 56.704 112.923C56.752 115.493 58.6827 117.408 61.152 117.413C63.6213 117.413 65.5573 115.504 65.6107 112.933C65.6533 110.891 65.6213 108.843 65.6267 106.8C65.6267 106.485 65.6693 106.165 65.6907 105.888H81.136C81.1787 106.021 81.2213 106.091 81.2213 106.155C81.232 108.272 81.2 110.395 81.2587 112.512C81.28 113.275 81.392 114.085 81.68 114.784C82.4587 116.672 84.56 117.733 86.512 117.344C88.5867 116.928 90.0907 115.253 90.144 113.125C90.208 110.715 90.16 108.299 90.16 105.877C99.1253 104.459 104.533 99.504 106.453 90.848C106.597 90.4267 106.699 89.984 106.757 89.5307C109.152 89.5307 111.52 89.5734 113.888 89.5201C116.389 89.4614 118.272 87.5201 118.283 85.0934C118.293 82.6774 116.416 80.6721 113.931 80.6347L113.915 80.6294Z" fill="url(#paint0_linear_124_1520)"/>
<path d="M51.9254 59.264C49.6747 62.4107 47.488 65.2267 45.5787 68.2187C43.9467 70.7787 42.6027 73.52 41.1947 76.2187C39.984 78.544 37.8774 79.6 35.6054 78.8907C33.4134 78.208 32.288 76.1493 32.592 73.5893C33.408 66.688 35.392 60.16 38.8 54.0907C39.6907 52.5067 40.752 51.024 41.92 49.2107C41.3334 48.7147 40.608 48.192 39.9894 47.5573C38.064 45.5947 37.9787 42.8747 39.7334 41.0773C41.52 39.2427 44.288 39.3067 46.2987 41.2587C46.912 41.8507 47.4507 42.5173 47.92 43.0293C50.6347 41.4667 53.088 39.8613 55.7014 38.592C61.088 35.9787 66.8107 34.4267 72.7787 33.8187C75.184 33.5733 77.184 34.8373 77.8294 36.9547C78.496 39.152 77.52 41.184 75.2747 42.3893C71.648 44.336 67.952 46.1813 64.4427 48.3307C62.2774 49.6587 60.416 51.472 58.3147 53.152C58.768 53.632 59.056 53.9467 59.36 54.2507C67.5307 62.384 75.6907 70.5173 83.872 78.64C85.264 80.0213 86.0107 81.5733 85.4134 83.552C84.5707 86.3413 81.296 87.5787 78.832 86.016C78.304 85.68 77.84 85.2373 77.392 84.7947C69.2427 76.6933 61.104 68.5867 52.9654 60.48C52.6774 60.192 52.432 59.8613 51.9254 59.264Z" fill="#0DFFEB"/>
<defs>
<linearGradient id="paint0_linear_124_1520" x1="4.00001" y1="60.3094" x2="118.267" y2="60.3094" gradientUnits="userSpaceOnUse">
<stop offset="0.12" stop-color="#5D19FF"/>
<stop offset="0.97" stop-color="#018EFF"/>
</linearGradient>
</defs>
</svg>
