<svg width="121" height="120" viewBox="0 0 121 120" fill="none" xmlns="http://www.w3.org/2000/svg">
<path d="M98.784 51.7814C98.784 63.888 98.7947 75.9947 98.784 88.096C98.7787 93.072 95.696 97.1574 91.008 98.3894C90.0374 98.6454 89.0027 98.7574 88 98.7574C63.824 98.7787 39.648 98.7787 15.4774 98.768C9.23735 98.768 4.68268 94.224 4.68268 87.9947C4.67202 63.856 4.67202 39.7174 4.68268 15.5787C4.67735 9.3547 9.22135 4.8107 15.4614 4.80536C39.6374 4.7947 63.8134 4.7947 87.984 4.80536C94.2294 4.80536 98.768 9.3387 98.7787 15.5734C98.7947 27.6427 98.7787 39.712 98.7787 51.7814H98.784Z" fill="url(#paint0_linear_124_1525)"/>
<path d="M116.208 69.184C116.208 81.2907 116.219 93.3974 116.203 105.509C116.197 110.48 113.104 114.571 108.416 115.797C107.445 116.053 106.411 116.16 105.408 116.16C81.2268 116.181 57.0508 116.181 32.8694 116.171C27.2747 116.171 23.0027 112.485 22.1707 107.003C21.7174 104.011 23.2214 102.251 26.2454 102.251C47.9201 102.251 69.5948 102.251 91.2694 102.251C96.5014 102.251 100.709 99.0667 101.915 94.1654C102.171 93.1254 102.251 92.016 102.251 90.9387C102.267 69.44 102.293 47.9467 102.224 26.448C102.213 23.936 103.76 21.7067 107.141 22.2934C112.597 23.2374 116.203 27.408 116.208 32.9707C116.224 45.04 116.208 57.1147 116.208 69.184Z" fill="#5D19FF"/>
<path d="M59.6747 58.464C61.584 56.5227 63.1733 54.88 64.7947 53.2693C66.832 51.2533 69.1093 51.248 71.1467 53.28C76.3627 58.4747 81.5573 63.696 86.7733 68.896C88.128 70.2453 88.6613 71.7867 87.968 73.6213C87.3386 75.2853 85.84 76.16 83.6906 76.16C62.3626 76.16 41.04 76.16 19.712 76.1653C17.7973 76.1653 16.3147 75.4667 15.5413 73.6587C14.768 71.84 15.3173 70.2827 16.6667 68.9333C24.5973 61.0027 32.5173 53.0667 40.4587 45.1467C42.4693 43.1413 44.7573 43.184 46.8107 45.232C50.8 49.2 54.7787 53.184 58.7467 57.1787C59.072 57.504 59.296 57.9307 59.68 58.464H59.6747Z" fill="#0DFFEB"/>
<path d="M71.9627 27.408C76.416 27.376 80.1387 31.0933 80.1227 35.5466C80.1067 39.9626 76.4693 43.616 72.048 43.6427C67.5947 43.6747 63.872 39.9573 63.888 35.504C63.904 31.088 67.5413 27.4346 71.9627 27.408Z" fill="#0DFFEB"/>
<defs>
<linearGradient id="paint0_linear_124_1525" x1="4.66668" y1="51.7867" x2="98.7894" y2="51.7867" gradientUnits="userSpaceOnUse">
<stop stop-color="#5D19FF"/>
<stop offset="1" stop-color="#018EFF"/>
</linearGradient>
</defs>
</svg>
