<svg width="120" height="120" viewBox="0 0 120 120" fill="none" xmlns="http://www.w3.org/2000/svg">
<path d="M116.48 53.6854C116.48 53.1894 116.336 53.0507 115.819 52.96C114.405 52.7147 112.949 52.72 111.589 52.0854C108.24 50.5067 105.984 46.2294 107.979 42.368C108.843 40.6934 110.229 39.6 111.696 38.5707C112.309 38.144 112.368 37.792 111.989 37.1574C110.091 33.9414 108.24 30.704 106.373 27.472C105.403 25.7974 105.397 25.7814 103.611 26.5707C101.461 27.52 99.3014 27.936 97.0774 26.8587C94.3147 25.52 92.7947 23.376 92.7147 20.2347C92.672 18.5867 93.4027 17.1947 94.0427 15.7814C94.3947 14.9974 94.2134 14.64 93.4987 14.24C90.656 12.6507 87.856 10.992 85.0293 9.37071C84.144 8.86405 83.2107 7.95738 82.3467 8.01605C81.44 8.07471 81.0347 9.44538 80.3947 10.224C78.3787 12.672 73.9947 14.272 70.4054 11.4827C68.1174 9.70138 67.4774 7.22671 67.264 4.56538C67.2054 3.85071 66.992 3.72271 66.368 3.73338C64.32 3.77071 62.2667 3.76005 60.2187 3.77071C58.1334 3.76005 56.0427 3.77071 53.9573 3.73338C53.4187 3.72271 53.1573 3.88271 53.0987 4.44271C53.0187 5.22138 52.896 5.99471 52.7573 6.76805C52.2827 9.36538 50.5227 11.5627 48.0534 12.496C45.1947 13.5787 42.784 12.688 40.64 10.864C40.0373 10.352 39.584 9.65338 39.104 9.01338C37.8827 7.38671 38.272 7.85605 35.1787 9.42405C33.4667 10.2934 31.8134 11.2694 30.192 12.304C25.9467 15.0187 25.7014 14.2827 26.992 17.264C28.032 19.6747 27.8827 22.0374 26.432 24.256C24.752 26.832 21.7974 27.8667 18.8 27.1787C17.7547 26.9387 16.8 26.5227 15.8294 26.1334C14.9867 25.7974 14.624 26.1334 14.176 27.2747C12.9494 30.4267 11.2 33.3387 9.12535 36.0107C7.92002 37.5627 8.02135 38.176 9.14669 38.9174C10.4854 39.808 11.6 40.9334 12.4107 42.3734C12.688 42.8694 12.672 42.7307 12.912 43.4934C13.0134 43.808 13.0934 44.1867 13.1627 44.512C13.4507 45.936 13.072 46.5974 12.7254 47.664C11.6 51.1254 8.86402 52.4214 5.51469 52.7627C3.92535 52.928 3.94669 52.8747 3.91469 54.4054C3.82402 58.5334 4.14402 62.672 3.74402 66.7947C3.71202 67.136 3.87202 67.312 4.17069 67.264C5.02935 67.1254 5.81335 67.536 6.64535 67.6107C9.44002 67.872 11.3974 69.376 12.448 72.1334C13.408 74.656 12.8534 76.8534 11.4614 78.928C10.64 80.1547 9.24269 80.8107 8.13869 81.7654C7.80269 82.0534 7.73335 82.2827 7.94669 82.5707C8.98669 83.968 9.68002 85.568 10.576 87.04C11.856 89.136 13.152 91.232 14.256 93.4294C14.7254 94.3627 15.3067 94.256 15.9947 93.968C16.8534 93.6107 17.664 93.0774 18.5547 92.864C24.0747 91.5574 28.2507 95.7334 27.3387 101.189C27.1734 102.187 26.6667 103.013 26.2987 103.915C25.9574 104.763 25.84 105.381 26.88 105.957C30.0534 107.707 33.1627 109.579 36.2827 111.419C37.8934 112.368 38.1014 112.341 39.1733 110.896C39.392 110.603 39.6054 110.309 39.8347 110.021C41.9094 107.376 44.7254 106.608 48.192 107.675C50.6027 108.416 52.048 110.224 52.592 112.699C52.8054 113.659 52.9654 114.629 53.088 115.605C53.1574 116.165 53.4134 116.325 53.952 116.315C56.0374 116.283 58.128 116.288 60.2134 116.277C62.2987 116.288 64.3893 116.299 66.4747 116.304C66.8267 116.304 67.28 116.389 67.216 115.803C67.1467 115.173 67.3653 114.587 67.4453 113.979C68.0853 109.136 72.0907 106.155 77.1734 107.632C79.296 108.251 80.3254 109.995 81.6 111.488C82.096 112.069 82.4 112.224 83.104 111.808C86.5707 109.76 90.0587 107.749 93.5627 105.776C94.2613 105.381 94.368 105.029 94.0427 104.309C93.4774 103.051 92.8267 101.808 92.7254 100.389C92.544 97.8294 93.5787 95.792 95.4133 94.096C95.3973 93.968 95.4347 93.9094 95.5734 93.9574C97.408 92.8747 99.3173 92.2454 101.488 92.7734C102.485 93.0187 103.451 93.3494 104.341 93.824C105.211 94.2827 105.589 94.016 106.032 93.2267C107.648 90.3147 109.339 87.4507 111.003 84.5654C112.421 82.1067 112.384 82.16 110.181 80.4107C107.477 78.256 105.957 74.0107 108.624 70.3734C110.331 68.0427 112.731 67.376 115.413 67.2907C116.032 67.2694 116.48 67.248 116.475 66.4427C116.453 62.1974 116.459 57.9467 116.475 53.7014L116.48 53.6854ZM97.4027 65.2427C97.0934 66.8747 96.928 68.544 96.4694 70.1494C95.5147 73.5147 94.08 76.6667 92.2987 79.6854C90.048 83.4987 86.976 86.5547 83.712 89.456C82.704 90.352 81.52 90.9974 80.4054 91.744C80.3254 91.7974 80.2454 91.8507 80.1707 91.904C76.5067 94.1654 72.6347 95.9414 68.4 96.8054C65.7014 97.3547 62.9813 97.8347 60.2027 97.7974L60.1867 97.8827C56.3147 97.7494 52.5227 97.1414 48.832 95.9627C42.2774 93.872 36.704 90.2347 32.0747 85.1307C29.2694 82.0374 27.088 78.5174 25.408 74.7307C24.2987 72.224 23.5627 69.5414 23.0347 66.8214C22.416 63.6427 22.5387 60.4374 22.5974 57.2374C22.608 56.5494 23.5467 56.0587 23.2534 55.3974C23.2854 55.1467 22.9174 54.9654 23.1254 54.8854C23.5894 52.0534 23.9254 49.1307 25.0187 46.464C29.9467 34.3947 38.768 26.7414 51.312 23.376C54.1974 22.6027 57.1787 22.3147 60.1813 22.3787L60.1974 22.464C68.6987 22.2934 76.304 24.928 83.0133 30.0534C91.152 36.272 95.9627 44.5494 97.4827 54.6614C98.0107 58.16 98.0693 61.696 97.3973 65.2374L97.4027 65.2427Z" fill="url(#paint0_linear_124_1532)"/>
<path d="M97.3973 65.2427C97.0933 66.8747 96.9227 68.5493 96.4747 70.1547C95.5147 73.5147 94.08 76.672 92.2987 79.6853C90.048 83.504 86.9813 86.56 83.712 89.456C82.6987 90.352 81.5147 90.9973 80.4053 91.7493C80.2613 91.712 80.208 91.8027 80.1707 91.9093C76.512 94.176 72.624 95.952 68.4 96.8053C65.808 97.3333 63.184 97.808 60.512 97.808H60.1973L60.1813 97.888C56.3093 97.7547 52.5173 97.152 48.832 95.968C42.2773 93.888 36.704 90.24 32.0693 85.1467C29.264 82.0533 27.0773 78.5227 25.408 74.7467C24.304 72.2453 23.568 69.5573 23.04 66.832C22.4213 63.6587 22.5387 60.4587 22.608 57.248C22.608 56.816 22.6453 56.3787 22.608 55.9467C22.5707 55.5627 22.6773 55.184 22.8213 54.8267C22.832 54.8 22.832 54.7893 22.832 54.7733C23.3067 51.9413 23.9253 49.152 25.0187 46.48C29.9573 34.4213 38.7787 26.7573 51.312 23.3973C54.1973 22.6187 57.184 22.3307 60.1867 22.3947L60.2027 22.4853C68.7093 22.3147 76.32 24.9493 83.0187 30.0693C91.1573 36.2827 95.9627 44.5653 97.488 54.6773C98.016 58.1813 98.08 61.7067 97.3973 65.248V65.2427Z" fill="#0DFFEB"/>
<path d="M49.6853 67.1413C48.288 68.528 46.9173 69.8507 45.5946 71.2213C45.1466 71.6907 44.9013 71.6267 44.4746 71.2C40.656 67.3547 36.8266 63.5253 32.976 59.7173C32.496 59.2427 32.4426 58.9653 32.9706 58.512C33.6053 57.9627 34.176 57.3387 34.7626 56.736C37.9146 53.5307 41.072 50.3307 44.1973 47.0987C44.7733 46.5013 45.136 46.5227 45.696 47.1093C46.9813 48.4533 48.3253 49.7387 49.6906 51.088C47.248 53.52 44.8853 55.9147 42.464 58.2507C41.8133 58.88 41.6746 59.2213 42.4213 59.9307C44.8586 62.2507 47.2106 64.6667 49.6853 67.136V67.1413Z" fill="#5D19FF"/>
<path d="M74.336 48.0427C74.5493 48.24 74.7146 48.3787 74.864 48.5333C78.7253 52.3947 82.5813 56.256 86.4533 60.1067C86.8587 60.512 86.88 60.7413 86.4587 61.152C82.56 64.96 78.6773 68.784 74.7947 72.6133C74.4213 72.9813 74.1067 73.0987 73.6907 72.672C72.4853 71.44 71.28 70.208 70.032 69.024C69.536 68.5547 69.9147 68.3573 70.1867 68.0853C72.3093 65.9627 74.4373 63.8347 76.56 61.712C77.2818 60.9902 77.2693 60.2578 76.5226 59.5147C74.4746 57.4667 72.4587 55.392 70.368 53.392C69.7173 52.768 69.8027 52.4373 70.4053 51.8827C71.5627 50.816 72.6453 49.6693 73.76 48.5547C73.936 48.3787 74.128 48.224 74.336 48.0427Z" fill="#5D19FF"/>
<path d="M70.3019 41.5814L62.6002 39.1027L50.5909 76.4178L58.2925 78.8965L70.3019 41.5814Z" fill="#5D19FF"/>
<defs>
<linearGradient id="paint0_linear_124_1532" x1="3.73335" y1="60.0214" x2="116.48" y2="60.0214" gradientUnits="userSpaceOnUse">
<stop stop-color="#5D19FF"/>
<stop offset="0.88" stop-color="#018EFF"/>
</linearGradient>
</defs>
</svg>
