<svg width="121" height="120" viewBox="0 0 121 120" fill="none" xmlns="http://www.w3.org/2000/svg">
<path d="M19.0774 29.103C18.4342 22.6459 19.8154 16.9816 25.0408 12.8232C29.0547 9.62704 33.6669 8.37053 38.7677 8.55003C47.0747 8.83923 58.0343 15.8149 56.1296 29.098C56.5384 29.098 56.9223 29.098 57.3063 29.098C60.2431 29.098 63.175 29.088 66.1118 29.098C68.6797 29.113 70.4598 30.6986 70.4797 33.2415C70.5395 40.6011 70.4997 47.9557 70.4947 55.3152C70.4947 55.4648 70.4298 55.6194 70.37 55.8687C66.5805 55.8687 62.811 55.8637 59.0365 55.8737C58.2736 55.8737 57.5007 55.8637 56.7528 55.9983C52.5844 56.7612 49.8919 60.077 49.8819 64.4947C49.8619 73.1806 49.8769 81.8665 49.8769 90.5524C49.8769 94.9352 49.857 99.3181 49.8819 103.701C49.8969 106.254 49.5329 108.857 51.0088 111.434H49.473C35.437 111.434 21.4059 111.434 7.3699 111.434C4.03915 111.434 2.53333 109.914 2.53333 106.558C2.53831 82.3502 2.53831 58.1474 2.53831 33.9396C2.53831 30.6337 4.08901 29.103 7.42973 29.103C10.8502 29.103 14.2658 29.103 17.6863 29.103H19.0774ZM27.3445 29.0332H47.7428C48.1916 24.8797 47.9772 20.9955 43.9583 18.5872C39.7799 16.0841 35.4819 16.0692 31.2636 18.5024C27.145 20.8808 26.8957 24.7949 27.3445 29.0332ZM47.8625 29.3573C47.8625 33.401 47.8525 37.3301 47.8625 41.2543C47.8725 43.9268 49.5777 45.7568 51.991 45.7368C54.3844 45.7119 56.0697 43.852 56.0797 41.1795C56.0897 37.6842 56.0797 34.1939 56.0797 30.6986C56.0797 30.2697 56.0797 29.8409 56.0797 29.3573H47.8575H47.8625ZM27.2298 29.3722H18.9976C18.9976 33.4459 18.9677 37.4548 19.0076 41.4587C19.0325 43.9318 20.8226 45.7368 23.1311 45.7368C25.4746 45.7368 27.1899 43.9817 27.2198 41.4587C27.2597 38.5268 27.2298 35.5999 27.2298 32.6681C27.2298 31.5961 27.2298 30.5191 27.2298 29.3772V29.3722Z" fill="url(#paint0_linear_130_2095)"/>
<path d="M87.1633 111.434C78.268 111.434 69.3727 111.434 60.4724 111.434C57.4059 111.434 56.0846 109.963 56.0846 106.548C56.0846 93.3197 56.0846 80.0914 56.0846 66.8631C56.0846 63.5972 57.4408 62.0515 60.3328 62.0515C78.2331 62.0515 96.1334 62.0515 114.034 62.0515C116.906 62.0515 118.272 63.6271 118.272 66.888C118.272 80.1562 118.272 93.4244 118.272 106.698C118.272 109.874 116.891 111.434 114.064 111.439C105.094 111.444 96.1284 111.439 87.1583 111.439L87.1633 111.434ZM72.5639 77.1296H72.5738C72.5738 77.8127 72.5589 78.4958 72.5738 79.1789C72.7783 87.5906 78.3428 94.1673 86.0514 95.1047C92.9074 95.9374 99.7683 90.4626 101.309 82.6194C101.823 79.9917 101.718 77.1944 101.768 74.477C101.813 72.0537 100.232 70.3235 98.1628 70.3135C96.1085 70.3035 94.5428 72.0437 94.493 74.4371C94.4631 75.8033 94.493 77.1695 94.483 78.5407C94.4381 83.2426 91.2969 86.8775 87.2282 86.9324C83.1644 86.9872 79.9234 83.2925 79.8736 78.5357C79.8586 77.1695 79.9035 75.7983 79.8586 74.4371C79.7838 72.0238 78.2281 70.3035 76.1788 70.3135C74.1195 70.3235 72.6187 72.0437 72.5639 74.4819C72.5439 75.3645 72.5639 76.252 72.5639 77.1346V77.1296Z" fill="url(#paint1_linear_130_2095)"/>
<path d="M47.8626 29.3572H56.0847C56.0847 29.8408 56.0847 30.2696 56.0847 30.6985C56.0847 34.1938 56.0947 37.6841 56.0847 41.1794C56.0748 43.8519 54.3944 45.7168 51.9961 45.7367C49.5778 45.7616 47.8725 43.9267 47.8675 41.2542C47.8526 37.3251 47.8675 33.396 47.8675 29.3572H47.8626Z" fill="#0DFFEB"/>
<path d="M27.2297 29.3771C27.2297 30.5239 27.2297 31.596 27.2297 32.668C27.2297 35.5998 27.2547 38.5267 27.2198 41.4586C27.1849 43.9816 25.4696 45.7367 23.1311 45.7367C20.8275 45.7367 19.0325 43.9317 19.0076 41.4586C18.9677 37.4547 18.9976 33.4508 18.9976 29.3721H27.2297V29.3771Z" fill="#0DFFEB"/>
<path d="M72.559 77.1296C72.559 76.247 72.544 75.3595 72.559 74.4769C72.6138 72.0387 74.1146 70.3185 76.1739 70.3085C78.2232 70.2985 79.7839 72.0188 79.8537 74.4321C79.8936 75.7983 79.8537 77.1645 79.8687 78.5307C79.9185 83.2875 83.1595 86.9822 87.2233 86.9274C91.292 86.8725 94.4382 83.2376 94.4781 78.5357C94.4931 77.1695 94.4582 75.8033 94.4881 74.4321C94.538 72.0387 96.1036 70.2985 98.1579 70.3085C100.227 70.3185 101.808 72.0487 101.763 74.472C101.713 77.1944 101.818 79.9916 101.304 82.6144C99.7634 90.4576 92.9025 95.9324 86.0465 95.0997C78.3379 94.1623 72.7684 87.5905 72.5689 79.1739C72.554 78.4908 72.5689 77.8077 72.5689 77.1246H72.559V77.1296Z" fill="#0DFFEB"/>
<defs>
<linearGradient id="paint0_linear_130_2095" x1="2.53831" y1="59.9873" x2="70.5096" y2="59.9873" gradientUnits="userSpaceOnUse">
<stop stop-color="#5D19FF"/>
<stop offset="1" stop-color="#018EFF"/>
</linearGradient>
<linearGradient id="paint1_linear_130_2095" x1="56.0846" y1="86.7429" x2="118.272" y2="86.7429" gradientUnits="userSpaceOnUse">
<stop stop-color="#5D19FF"/>
<stop offset="1" stop-color="#018EFF"/>
</linearGradient>
</defs>
</svg>
