<svg width="32" height="32" viewBox="0 0 32 32" fill="none" xmlns="http://www.w3.org/2000/svg">
<path fill-rule="evenodd" clip-rule="evenodd" d="M15.5318 1.4179C15.8337 1.30471 16.1663 1.30471 16.4682 1.4179L27.1348 5.4179C27.6552 5.61305 28 6.11055 28 6.66634V15.9997C28 20.5949 24.9577 24.2667 22.2113 26.6698C20.8102 27.8958 19.4153 28.8541 18.3733 29.5053C17.851 29.8318 17.4138 30.0833 17.1041 30.2547C16.9492 30.3405 16.8259 30.4064 16.7396 30.4517C16.6964 30.4744 16.6624 30.4919 16.6383 30.5042L16.6097 30.5188L16.601 30.5232L16.5982 30.5246C16.5977 30.5248 16.5963 30.5256 16 29.333C15.4037 30.5256 15.4033 30.5254 15.4029 30.5252L15.399 30.5232L15.3903 30.5188L15.3617 30.5042C15.3376 30.4919 15.3036 30.4744 15.2604 30.4517C15.1741 30.4064 15.0508 30.3405 14.8959 30.2547C14.5862 30.0833 14.149 29.8318 13.6267 29.5053C12.5847 28.8541 11.1898 27.8958 9.78866 26.6698C7.04233 24.2667 4 20.5949 4 15.9997V6.66634C4 6.11055 4.34476 5.61305 4.86517 5.4179L15.5318 1.4179ZM16 29.333L15.4029 30.5252C15.7783 30.7129 16.2209 30.7133 16.5963 30.5256L16 29.333ZM16 27.8167C16.2555 27.6719 16.5823 27.4801 16.96 27.244C17.9181 26.6452 19.1898 25.7702 20.4553 24.6629C23.0423 22.3993 25.3333 19.4044 25.3333 15.9997V7.59034L16 4.09034L6.66667 7.59034V15.9997C6.66667 19.4044 8.95767 22.3993 11.5447 24.6629C12.8102 25.7702 14.0819 26.6452 15.04 27.244C15.4177 27.4801 15.7445 27.6719 16 27.8167Z" fill="#5D19FF"/>
<path fill-rule="evenodd" clip-rule="evenodd" d="M22.0511 12.4071C22.5718 12.9278 22.5718 13.772 22.0511 14.2927L16.9939 19.3499C15.9525 20.3913 14.2641 20.3913 13.2227 19.3499L10.8322 16.9594C10.3115 16.4387 10.3115 15.5945 10.8322 15.0738C11.3529 14.5531 12.1971 14.5531 12.7178 15.0738L15.1083 17.4643L20.1655 12.4071C20.6862 11.8864 21.5304 11.8864 22.0511 12.4071Z" fill="#5D19FF"/>
</svg>
