<svg width="90" height="90" viewBox="0 0 90 90" fill="none" xmlns="http://www.w3.org/2000/svg">
<path d="M44.5646 55.3428C58.6871 55.3428 70.6423 64.5912 74.7222 77.3603C83.5782 69.2202 89.1291 57.5397 89.1291 44.5646C89.1291 19.9481 69.181 0 44.5646 0C19.9481 0 0 19.9481 0 44.5646C0 57.5397 5.55096 69.2202 14.407 77.3603C18.4868 64.5912 30.442 55.3428 44.5646 55.3428ZM44.5646 17.565C54.9898 17.565 63.4437 26.0189 63.4437 36.4441C63.4437 46.8693 54.9898 55.3232 44.5646 55.3232C34.1394 55.3232 25.6854 46.8693 25.6854 36.4441C25.6854 26.0189 34.1394 17.565 44.5646 17.565Z" fill="url(#paint0_linear_124_1613)"/>
<path d="M44.5646 55.333C54.9912 55.333 63.4437 46.8805 63.4437 36.4538C63.4437 26.0272 54.9912 17.5747 44.5646 17.5747C34.1379 17.5747 25.6854 26.0272 25.6854 36.4538C25.6854 46.8805 34.1379 55.333 44.5646 55.333Z" fill="#0DFFEB"/>
<path d="M74.7222 77.36C70.6423 64.5909 58.6871 55.3425 44.5646 55.3425C30.442 55.3425 18.4868 64.5909 14.407 77.36C22.3411 84.6665 32.9331 89.1288 44.5646 89.1288C56.1961 89.1288 66.788 84.6665 74.7222 77.36Z" fill="#4324A3"/>
<defs>
<linearGradient id="paint0_linear_124_1613" x1="0" y1="38.6802" x2="89.1291" y2="38.6802" gradientUnits="userSpaceOnUse">
<stop stop-color="#5D19FF"/>
<stop offset="0.04" stop-color="#5621FF"/>
<stop offset="0.24" stop-color="#3748FF"/>
<stop offset="0.44" stop-color="#1F66FF"/>
<stop offset="0.64" stop-color="#0D7CFF"/>
<stop offset="0.83" stop-color="#0389FF"/>
<stop offset="1" stop-color="#008EFF"/>
</linearGradient>
</defs>
</svg>
