<svg width="109" height="90" viewBox="0 0 109 90" fill="none" xmlns="http://www.w3.org/2000/svg">
<path d="M37.152 29.0094H72.0046L54.5729 0L37.152 29.0094Z" fill="#0DFFEB"/>
<path d="M108.043 29.0093L108.25 28.7808L88.6092 0.0107727L72.0044 29.0093H108.043Z" fill="#1DA4FF"/>
<path d="M72.0042 29.0094L88.609 0.0108753H55.9761L54.5724 0L72.0042 29.0094Z" fill="#68BDFC"/>
<path d="M55.4869 86.822L108.043 29.0099H72.0046L55.4869 86.822Z" fill="#9077FC"/>
<path d="M55.4869 86.822L72.0046 29.0099H37.152L53.7785 87.192L54.464 87.9428L55.4869 86.822Z" fill="#764AFF"/>
<path d="M20.3182 0.0107727L0.666626 28.7808L0.884248 29.0093H37.1515L20.3182 0.0107727Z" fill="#008EFF"/>
<path d="M0.884277 29.0099L53.7781 87.192L37.1515 29.0099H0.884277Z" fill="#5D19FF"/>
<path d="M54.5723 0L53.1795 0.0108753H20.3181L37.1514 29.0094L54.5723 0Z" fill="#68BDFC"/>
</svg>
