<svg width="91" height="90" viewBox="0 0 91 90" fill="none" xmlns="http://www.w3.org/2000/svg">
<path d="M55.0569 67.9108C54.3717 68.2007 54.1421 68.5396 54.1797 69.2587C54.24 70.3655 54.1986 71.4799 54.1986 72.6357H51.2582V72.647H37.2266C37.2266 71.4347 37.2003 70.2375 37.2417 69.0441C37.2567 68.5057 37.1212 68.2346 36.5753 68.0087C27.1481 64.0933 21.3578 55.0388 21.6891 44.7796C22.0468 33.6093 30.7134 23.8245 41.7557 22.119C54.8913 20.0935 66.8183 28.4552 69.3408 41.4666C71.4566 52.3733 65.4216 63.57 55.0569 67.9108Z" fill="#0DFFEB"/>
<path d="M44.2933 72.6433H37.2229C37.2229 71.431 37.1965 70.2375 37.2342 69.0403C37.2492 68.5019 37.1137 68.2308 36.5678 68.005C27.1406 64.0895 21.3503 55.0313 21.6816 44.7759C22.043 33.6055 30.7097 23.8207 41.7482 22.119C54.8838 20.0935 66.807 28.4552 69.3295 41.4665C71.4453 52.3733 65.4141 63.57 55.0457 67.9146C54.3567 68.2007 54.1308 68.5433 54.1685 69.2624C54.2287 70.3693 54.1835 71.4837 54.1835 72.6395H47.1131C47.1131 72.3647 47.1131 72.0861 47.1131 71.8075C47.1131 68.8031 47.1244 65.7988 47.1018 62.7944C47.0981 62.2485 47.2487 61.8833 47.6779 61.5219C50.4676 59.1689 53.216 56.7594 56.0132 54.4139C56.7323 53.8115 57.1389 53.1564 57.0147 52.2152C56.9959 52.0721 57.0222 51.9215 57.0109 51.7747C56.9093 50.6415 57.0184 49.768 58.227 49.0452C59.8157 48.0927 60.2186 45.9731 59.5296 44.2375C58.8406 42.5094 57.1615 41.4665 55.2603 41.587C53.4494 41.7 51.9133 43.0403 51.4728 44.8888C51.0587 46.6432 51.8606 48.4767 53.4193 49.4518C53.7242 49.64 54.1572 49.9902 54.1459 50.2499C54.1045 51.0744 54.5525 51.9818 53.6828 52.7046C51.5293 54.4892 49.4248 56.3302 47.196 58.2389C47.1621 57.9302 47.1169 57.7232 47.1169 57.5161C47.1131 52.362 47.1169 47.2079 47.1056 42.0539C47.1056 41.5682 47.2148 41.2896 47.6929 41.0336C49.485 40.0848 50.2944 38.1648 49.7899 36.256C49.293 34.3773 47.644 33.1011 45.7088 33.0973C43.7699 33.0973 42.1134 34.366 41.6165 36.2372C41.1082 38.146 41.9402 40.0397 43.6758 41.0599C43.9431 41.2181 44.2631 41.5833 44.2631 41.8581C44.3008 45.5401 44.2857 49.2184 44.282 52.9004C44.282 52.9795 44.2406 53.0548 44.1954 53.2242C41.944 51.9366 39.7114 50.698 37.5391 49.369C37.2756 49.2071 37.2869 48.5558 37.2229 48.1228C37.1137 47.4112 37.2869 46.9331 38.0323 46.5265C39.7001 45.6192 40.3929 43.6351 39.8696 41.7979C39.3425 39.9531 37.6521 38.7144 35.7019 38.7483C33.8157 38.7784 32.1968 40.0623 31.7149 41.9108C31.233 43.7443 31.9973 45.6869 33.6651 46.6018C34.2411 46.918 34.4143 47.2456 34.4105 47.8856C34.4068 51.3267 33.9964 50.6264 36.997 52.3658C39.2107 53.6496 41.447 54.892 43.6532 56.1909C43.9281 56.3528 44.2594 56.7255 44.2631 57.0041C44.3008 62.1845 44.2895 67.3649 44.2895 72.647L44.2933 72.6433ZM37.2342 80.0374C37.3245 84.1223 40.4268 87.6311 44.4363 88.2034C48.5927 88.7982 52.5759 86.3285 53.7957 82.3679C54.4847 80.1315 54.1007 77.835 54.1948 75.5347H37.2304C37.2304 77.0971 37.2041 78.5654 37.2342 80.0336V80.0374Z" fill="url(#paint0_linear_124_1637)"/>
<path d="M17.3898 44.4032V47.2343C15.2062 47.2343 13.0677 47.2531 10.9255 47.223C10.3683 47.2155 10.0596 47.3473 9.77348 47.8819C8.85109 49.6137 6.90467 50.4043 5.04107 49.9074C3.15488 49.4066 1.8786 47.7652 1.87107 45.8338C1.86354 43.8987 3.13982 42.2346 5.00718 41.7339C6.86325 41.2369 8.85109 42.0162 9.75466 43.7255C10.0634 44.309 10.4097 44.4182 10.982 44.4107C13.0978 44.3881 15.2099 44.4032 17.3898 44.4032Z" fill="#5D19FF"/>
<path d="M66.7619 26.795C66.0918 26.0834 65.4894 25.4472 64.8306 24.7507C64.9247 24.6415 65.0828 24.4419 65.2598 24.265C66.2951 23.2221 67.3078 22.1491 68.3883 21.1515C69.2957 20.3157 69.9206 19.5853 69.5517 18.1245C69.1225 16.4115 70.3875 14.6119 72.0628 13.9079C73.757 13.1926 75.7562 13.6782 76.9534 15.0938C78.1318 16.4906 78.2673 18.5688 77.2734 20.1124C76.2757 21.6635 74.3669 22.4315 72.5786 21.8856C71.9913 21.7049 71.6788 21.8329 71.2873 22.2357C69.7964 23.7718 68.2754 25.2815 66.7582 26.8025L66.7619 26.795Z" fill="#5D19FF"/>
<path d="M24.6258 64.8764C25.3637 65.5804 25.9962 66.1866 26.6965 66.8567C25.1567 68.389 23.6507 69.9138 22.1147 71.4046C21.7118 71.7924 21.5914 72.1087 21.7683 72.696C22.3293 74.5558 21.4972 76.5098 19.8407 77.4773C18.1879 78.4449 16.0759 78.1738 14.7167 76.826C13.3576 75.4782 13.079 73.3586 14.0391 71.7058C15.0066 70.038 16.9531 69.1871 18.8091 69.7519C19.4341 69.9401 19.7654 69.7858 20.1682 69.3716C21.6441 67.8544 23.1462 66.3673 24.6296 64.8764H24.6258Z" fill="#5D19FF"/>
<path d="M64.7892 66.917C65.5083 66.1979 66.1257 65.5804 66.8109 64.899C68.2792 66.3748 69.804 67.8808 71.2948 69.4168C71.6826 69.8197 71.9951 69.9401 72.5824 69.7632C74.4423 69.2022 76.3924 70.0343 77.3638 71.687C78.3313 73.3398 78.0603 75.4519 76.7049 76.8072C75.3458 78.1701 73.245 78.4449 71.5847 77.4811C69.9282 76.5173 69.0736 74.5558 69.6421 72.7073C69.8378 72.071 69.6571 71.751 69.2505 71.352C67.7371 69.8761 66.2499 68.374 64.7892 66.9132V66.917Z" fill="#5D19FF"/>
<path d="M26.6363 24.8561C25.9887 25.4773 25.3562 26.0834 24.6334 26.7762C23.3044 25.4359 21.9189 24.0843 20.5861 22.6838C19.9762 22.0438 19.4605 21.6748 18.4326 21.927C16.5126 22.3976 14.6753 21.3435 13.8621 19.5928C13.0677 17.8798 13.4969 15.8543 14.9238 14.6082C16.2942 13.411 18.3875 13.2453 19.9386 14.2129C21.5688 15.2294 22.3029 17.1457 21.7269 19.0507C21.5838 19.5251 21.6742 19.7961 22.0055 20.1199C23.534 21.6259 25.04 23.1581 26.5534 24.6829C26.5722 24.7017 26.5798 24.7356 26.6325 24.8523L26.6363 24.8561Z" fill="#5D19FF"/>
<path d="M47.0529 17.4317C46.1568 17.4129 45.2796 17.3941 44.2782 17.3715C44.2857 15.4853 44.2631 13.5502 44.3083 11.6188C44.3309 10.7341 44.2255 10.1091 43.3219 9.55945C41.6315 8.53541 41.0781 6.4911 41.7407 4.68021C42.3882 2.90697 44.1276 1.78128 46.0138 1.90552C47.8284 2.02599 49.4247 3.39263 49.8389 5.1734C50.2718 7.04453 49.436 8.91943 47.6854 9.86064C47.2486 10.0941 47.1206 10.3501 47.1244 10.8131C47.1395 12.9591 47.1244 15.1088 47.1169 17.2548C47.1169 17.2812 47.098 17.3075 47.0566 17.4317H47.0529Z" fill="#5D19FF"/>
<path d="M74.0167 47.2343V44.4031C76.0384 44.4031 78.0263 44.373 80.0141 44.4182C80.8273 44.437 81.3582 44.3353 81.825 43.4958C82.7323 41.8581 84.7917 41.2143 86.5913 41.7828C88.3683 42.3437 89.5844 44.0643 89.5317 45.9467C89.4827 47.7802 88.1801 49.4292 86.4219 49.8885C84.5658 50.3742 82.6345 49.6513 81.7196 47.9948C81.377 47.3773 81.0156 47.2117 80.3605 47.223C78.2785 47.2606 76.1928 47.238 74.0167 47.238V47.2343Z" fill="#5D19FF"/>
<defs>
<linearGradient id="paint0_linear_124_1637" x1="21.6703" y1="55.0577" x2="69.7549" y2="55.0577" gradientUnits="userSpaceOnUse">
<stop offset="0.12" stop-color="#5D19FF"/>
<stop offset="0.97" stop-color="#018EFF"/>
</linearGradient>
</defs>
</svg>
