<svg width="35" height="36" viewBox="0 0 35 36" fill="none" xmlns="http://www.w3.org/2000/svg">
<path fill-rule="evenodd" clip-rule="evenodd" d="M2 17.9961C2 26.5565 8.93959 33.4961 17.5 33.4961C26.0604 33.4961 33 26.5565 33 17.9961C33 9.43568 26.0604 2.49609 17.5 2.49609C8.93959 2.49609 2 9.43568 2 17.9961ZM17.5 0.496094C7.83502 0.496094 0 8.33111 0 17.9961C0 27.6611 7.83502 35.4961 17.5 35.4961C27.165 35.4961 35 27.6611 35 17.9961C35 8.33111 27.165 0.496094 17.5 0.496094Z" fill="white"/>
<path d="M15.5945 29.4961V18.4961H12V14.8294H15.5945V12.8604C15.5945 9.13234 17.3746 7.49609 20.412 7.49609C21.8668 7.49609 22.6361 7.60609 23 7.65651V11.1628H20.9287C19.6392 11.1628 19.189 11.8567 19.189 13.2628V14.8294H22.9677L22.4545 18.4961H19.189V29.4961H15.5945Z" fill="white"/>
</svg>
