<svg width="35" height="36" viewBox="0 0 35 36" fill="none" xmlns="http://www.w3.org/2000/svg">
<path fill-rule="evenodd" clip-rule="evenodd" d="M2 17.9961C2 26.5565 8.93959 33.4961 17.5 33.4961C26.0604 33.4961 33 26.5565 33 17.9961C33 9.43568 26.0604 2.49609 17.5 2.49609C8.93959 2.49609 2 9.43568 2 17.9961ZM17.5 0.496094C7.83502 0.496094 0 8.33111 0 17.9961C0 27.6611 7.83502 35.4961 17.5 35.4961C27.165 35.4961 35 27.6611 35 17.9961C35 8.33111 27.165 0.496094 17.5 0.496094Z" fill="white"/>
<path fill-rule="evenodd" clip-rule="evenodd" d="M12.5798 8.99609C10.3707 8.99609 8.57983 10.787 8.57983 12.9961V22.9961C8.57983 25.2052 10.3707 26.9961 12.5798 26.9961H22.5798C24.789 26.9961 26.5798 25.2052 26.5798 22.9961V12.9961C26.5798 10.787 24.789 8.99609 22.5798 8.99609H12.5798ZM6.57983 12.9961C6.57983 9.68239 9.26613 6.99609 12.5798 6.99609H22.5798C25.8935 6.99609 28.5798 9.68238 28.5798 12.9961V22.9961C28.5798 26.3098 25.8935 28.9961 22.5798 28.9961H12.5798C9.26613 28.9961 6.57983 26.3098 6.57983 22.9961V12.9961ZM22.0798 12.4961C22.0798 11.9438 22.5275 11.4961 23.0798 11.4961H23.0898C23.6421 11.4961 24.0898 11.9438 24.0898 12.4961C24.0898 13.0484 23.6421 13.4961 23.0898 13.4961H23.0798C22.5275 13.4961 22.0798 13.0484 22.0798 12.4961ZM18.0632 14.9853C17.439 14.8927 16.8015 14.9993 16.2414 15.29C15.6813 15.5806 15.2271 16.0404 14.9434 16.6041C14.6597 17.1677 14.561 17.8064 14.6612 18.4294C14.7614 19.0524 15.0556 19.628 15.5018 20.0741C15.948 20.5203 16.5235 20.8145 17.1465 20.9147C17.7695 21.015 18.4082 20.9162 18.9719 20.6325C19.5355 20.3488 19.9953 19.8946 20.286 19.3345C20.5766 18.7744 20.6832 18.137 20.5907 17.5128C20.4962 16.8761 20.1996 16.2866 19.7444 15.8315C19.2893 15.3764 18.6998 15.0797 18.0632 14.9853ZM15.3202 13.5147C16.2537 13.0303 17.3162 12.8526 18.3565 13.0069C19.4177 13.1643 20.4001 13.6587 21.1586 14.4173C21.9172 15.1758 22.4117 16.1583 22.569 17.2194C22.7233 18.2597 22.5456 19.3222 22.0612 20.2557C21.5768 21.1892 20.8105 21.9462 19.871 22.419C18.9317 22.8918 17.8671 23.0564 16.8288 22.8893C15.7904 22.7222 14.8312 22.232 14.0876 21.4884C13.3439 20.7447 12.8537 19.7855 12.6866 18.7472C12.5195 17.7089 12.6841 16.6443 13.1569 15.7049C13.6298 14.7655 14.3867 13.9991 15.3202 13.5147Z" fill="white"/>
</svg>
