<svg width="121" height="120" viewBox="0 0 121 120" fill="none" xmlns="http://www.w3.org/2000/svg">
<path d="M88.9394 107.145C87.4562 104.583 85.9828 102.015 84.4454 99.4876C84.2434 99.1476 83.6915 98.8322 83.3022 98.8322C68.0613 98.7977 52.8203 98.7977 37.5744 98.8322C37.1605 98.8322 36.579 99.1821 36.3573 99.5467C34.8889 101.941 33.4796 104.366 32.1048 106.81C31.8289 107.308 31.5135 108.076 31.7155 108.451C31.9126 108.811 32.7503 108.958 33.3121 108.958C42.3196 108.993 51.3272 108.983 60.3299 108.983C69.3326 108.983 78.6506 108.983 87.806 108.983C89.2942 108.983 89.6588 108.402 88.9345 107.15L88.9394 107.145ZM117.322 87.0405H3.33764C3.33764 87.4298 3.36228 87.6959 3.33764 87.962C2.93358 92.6383 6.26462 95.1759 10.4136 95.1661C43.9457 95.0675 77.4779 95.1168 111.005 95.1119C115.543 95.1119 118.357 91.5098 117.317 87.0405H117.322Z" fill="url(#paint0_linear_130_2117)"/>
<path d="M110.995 11.4812C77.266 11.4812 43.5368 11.4812 9.80759 11.4812C5.79162 11.4812 3.34262 13.945 3.34262 17.9659C3.34262 39.3318 3.34262 60.6879 3.34262 82.0538C3.34262 82.4579 3.37711 82.857 3.3919 83.2759H117.485V17.9462C117.485 13.9401 115.021 11.4812 110.995 11.4812ZM49.9082 33.4532C48.8734 35.4883 47.7252 37.4741 46.8383 39.5782C45.9562 41.6921 45.3403 43.9194 44.542 46.2649C42.0881 45.6046 39.6194 44.9345 37.1605 44.2742C37.7814 39.253 43.2954 33.4434 49.9082 33.4532ZM55.6291 62.6244C55.432 62.6984 55.0476 62.5259 54.8653 62.3485C52.0516 59.5644 49.2429 56.7705 46.4736 53.9322C46.242 53.6957 46.1977 53.1241 46.2864 52.7644C46.4342 52.1879 46.7791 51.6557 47.0107 51.1481C50.529 54.6664 54.003 58.1404 57.5902 61.7178C56.9694 62.0134 56.314 62.3682 55.6241 62.6195L55.6291 62.6244ZM64.479 71.5926C63.8088 69.1141 63.1337 66.6059 62.4291 64.0239C67.0807 62.9398 71.3677 61.2398 75.295 58.5937C75.773 64.0978 70.0274 70.9915 64.479 71.5877V71.5926ZM84.9333 39.455C81.2869 50.4287 73.7724 57.2288 62.6607 60.1607C62.439 60.2149 62.2074 60.2494 61.7984 60.3233C61.6358 60.2001 61.35 60.0325 61.1184 59.8009C57.0334 55.7258 52.9435 51.6507 48.8881 47.5362C48.6122 47.2554 48.4447 46.6345 48.5432 46.2501C51.3667 35.0498 58.1963 27.5155 69.1897 23.8051C69.9781 23.539 70.4857 23.6326 71.0967 24.2535C75.5266 28.7474 79.9959 33.2069 84.48 37.6466C85.0467 38.2083 85.1846 38.6765 84.9284 39.4501L84.9333 39.455ZM86.2588 33.606C82.573 29.9251 78.8379 26.1999 74.9304 22.2972H86.4559C86.9635 26.1309 86.7713 29.9645 86.2588 33.606Z" fill="url(#paint1_linear_130_2117)"/>
<path d="M61.7983 60.3282C61.6308 60.205 61.345 60.0325 61.1183 59.8059C57.0333 55.7258 52.9434 51.6507 48.893 47.5412C48.617 47.2603 48.4495 46.6394 48.5431 46.2551C51.3666 35.0547 58.1962 27.5204 69.1896 23.8149C69.9731 23.5488 70.4856 23.6424 71.0917 24.2584C75.5216 28.7523 79.9909 33.2118 84.4799 37.6515C85.0466 38.2133 85.1845 38.6814 84.9283 39.455C81.2819 50.4287 73.7723 57.2288 62.6557 60.1607C62.4339 60.2198 62.2024 60.2494 61.7983 60.3282ZM77.3201 37.1686C77.3201 34.0002 74.7824 31.4379 71.6288 31.4034C68.4653 31.3689 65.8044 34.015 65.8143 37.1883C65.8241 40.342 68.3815 42.9043 71.5352 42.924C74.7726 42.9388 77.3251 40.4011 77.3201 37.1686Z" fill="#0DFFEB"/>
<path d="M64.474 71.5975C63.8039 69.114 63.1238 66.6108 62.4241 64.0287C67.0708 62.9496 71.3578 61.2446 75.2851 58.6035C75.7631 64.1026 70.0224 71.0012 64.4691 71.6024L64.474 71.5975Z" fill="#0DFFEB"/>
<path d="M44.5421 46.2649C42.0882 45.6046 39.6195 44.9394 37.1557 44.2742C37.7765 39.253 43.2954 33.4434 49.9033 33.4533C48.8685 35.4883 47.7204 37.4791 46.8383 39.5782C45.9514 41.6922 45.3354 43.9194 44.5421 46.2649Z" fill="#0DFFEB"/>
<path d="M74.9254 22.3021H86.4461C86.9586 26.1308 86.7615 29.9743 86.2539 33.6059C82.5681 29.925 78.833 26.1998 74.9254 22.3021Z" fill="#0DFFEB"/>
<path d="M47.0157 51.153C50.534 54.6664 54.0129 58.1452 57.5952 61.7276C56.9743 62.0232 56.319 62.378 55.6291 62.6293C55.432 62.7032 55.0476 62.5308 54.8702 62.3534C52.0517 59.5693 49.243 56.7754 46.4786 53.942C46.247 53.7055 46.1977 53.129 46.2913 52.7742C46.4441 52.1927 46.7792 51.6655 47.0206 51.1629L47.0157 51.153Z" fill="#0DFFEB"/>
<path d="M77.3202 37.1686C77.3202 40.4011 74.7726 42.9388 71.5352 42.924C68.3816 42.9092 65.8242 40.342 65.8143 37.1883C65.8044 34.015 68.4653 31.3689 71.6288 31.4033C74.7874 31.4378 77.3152 34.0002 77.3202 37.1686Z" fill="#5D19FF"/>
<path d="M44.0201 57.1999L42.4206 55.7803C42.0726 55.4714 41.54 55.5032 41.2311 55.8512L30.2409 68.2342C29.932 68.5822 29.9637 69.1148 30.3118 69.4237L31.9112 70.8432C32.2593 71.1522 32.7918 71.1204 33.1008 70.7724L44.091 58.3894C44.3999 58.0414 44.3682 57.5088 44.0201 57.1999Z" fill="#0DFFEB"/>
<path d="M53.8642 65.9367L52.2647 64.5171C51.9166 64.2082 51.3841 64.24 51.0752 64.588L40.0849 76.971C39.776 77.319 39.8078 77.8516 40.1558 78.1605L41.7553 79.5801C42.1033 79.889 42.6359 79.8572 42.9448 79.5092L53.935 67.1262C54.2439 66.7782 54.2122 66.2456 53.8642 65.9367Z" fill="#0DFFEB"/>
<path d="M48.6758 61.5214L47.0763 60.1019C46.7283 59.793 46.1957 59.8247 45.8868 60.1727L31.4065 76.488C31.0976 76.8361 31.1293 77.3686 31.4774 77.6775L33.0769 79.0971C33.4249 79.406 33.9575 79.3743 34.2664 79.0262L48.7467 62.711C49.0556 62.3629 49.0238 61.8303 48.6758 61.5214Z" fill="#0DFFEB"/>
<defs>
<linearGradient id="paint0_linear_130_2117" x1="3.30315" y1="98.0142" x2="117.534" y2="98.0142" gradientUnits="userSpaceOnUse">
<stop offset="0.12" stop-color="#5D19FF"/>
<stop offset="0.97" stop-color="#018EFF"/>
</linearGradient>
<linearGradient id="paint1_linear_130_2117" x1="3.33769" y1="47.3785" x2="117.485" y2="47.3785" gradientUnits="userSpaceOnUse">
<stop offset="0.12" stop-color="#5D19FF"/>
<stop offset="0.97" stop-color="#018EFF"/>
</linearGradient>
</defs>
</svg>
