<svg width="121" height="120" viewBox="0 0 121 120" fill="none" xmlns="http://www.w3.org/2000/svg">
<path d="M32.3386 33.6693H70.8559V41.2373H32.3386V33.6693Z" fill="#0DFFEB"/>
<path d="M8.81323 49.6213H56.9359V86.1547H8.81323V49.6213Z" fill="#0DFFEB"/>
<path d="M64.7653 117.531V116.384C64.7653 98.9813 64.7653 81.5786 64.7653 64.176C64.7653 60.4053 66.9413 57.68 70.2479 57.2533C74.1839 56.7466 77.5119 59.5786 77.5279 63.5466C77.5653 71.4133 77.5386 79.2746 77.5439 87.1413C77.5439 87.4986 77.5439 87.8613 77.5439 88.4426C77.8746 87.696 78.0719 87.136 78.3546 86.624C79.7786 84.0266 82.6959 82.72 85.4959 83.408C88.2266 84.0746 90.2426 86.624 90.3439 89.5893C90.3866 90.768 90.3493 91.952 90.3493 93.4026C92.1839 89.0506 95.0959 87.0933 98.6106 87.6586C102.685 88.3146 104.499 91.0453 104.877 97.2746C105 96.96 105.064 96.8053 105.117 96.6506C106.317 93.104 109.619 91.0506 113.24 91.6053C116.648 92.128 119.272 95.1946 119.277 98.8266C119.283 102.901 119.597 107.008 118.675 111.029C118.232 112.971 117.507 114.853 116.941 116.768C116.755 117.392 116.403 117.552 115.773 117.547C110.989 117.52 106.205 117.531 101.421 117.531H64.7653Z" fill="#5D19FF"/>
<path d="M2.81857 23.0347H81.0746V51.5733C75.7626 48.816 70.4186 48.5493 65.1972 51.5093C60.0292 54.4427 57.3999 59.0613 57.0159 65.0987C55.3146 65.0987 53.6932 65.168 52.0772 65.0773C50.9946 65.0133 50.3759 65.408 49.8106 66.32C48.3172 68.7147 46.7119 71.0347 45.0532 73.536C43.9119 71.9573 42.8452 70.528 41.8532 69.0453C41.6452 68.7307 41.7146 68.2187 41.6826 67.7973C41.5492 66.0053 41.6559 64.16 41.2506 62.432C39.8852 56.5867 34.5519 52.992 28.4986 53.6587C22.8826 54.2773 18.4506 59.184 18.3119 64.976C18.2746 66.6027 18.3066 68.2347 18.3066 69.9627H26.0239C26.0239 68.48 26.0132 67.0347 26.0239 65.5893C26.0452 63.0667 27.7092 61.2533 29.9812 61.2587C32.2586 61.2587 34.1786 63.0933 33.8906 65.5893C33.4106 69.8187 34.7492 73.2213 37.4852 76.3467C39.2026 78.304 40.6052 80.5493 42.0826 82.7093C42.5839 83.44 43.1812 83.5467 43.9866 83.6853C46.7439 84.1547 48.4132 83.0507 49.6879 80.624C50.8826 78.3573 52.4826 76.304 53.9012 74.16C54.5626 73.1645 55.5759 72.7645 56.9412 72.96V100.085H55.5706C41.6612 100.085 27.7519 100.085 13.8426 100.085C7.26123 100.085 2.82923 95.6747 2.82923 89.12C2.8239 67.52 2.82923 45.92 2.82923 24.32C2.82923 23.936 2.82923 23.5573 2.82923 23.0293L2.81857 23.0347ZM55.2452 33.6693V41.2373H70.8506V33.6693H55.2452ZM39.7626 33.6587V41.248H47.3306V33.6587H39.7626ZM70.6586 2.68802C51.5599 2.65602 32.4666 2.66135 13.3679 2.70935C12.0292 2.70935 10.6212 3.00802 9.36257 3.47735C4.70657 5.21602 1.7359 10.8267 3.04257 15.1893C29.0319 15.1893 55.0212 15.1893 80.9999 15.1893C82.2266 8.61335 77.3572 2.69868 70.6586 2.68802Z" fill="url(#paint0_linear_130_2110)"/>
<defs>
<linearGradient id="paint0_linear_130_2110" x1="2.73323" y1="51.3814" x2="81.1919" y2="51.3814" gradientUnits="userSpaceOnUse">
<stop offset="0.12" stop-color="#5D19FF"/>
<stop offset="0.97" stop-color="#018EFF"/>
</linearGradient>
</defs>
</svg>
