<svg width="121" height="120" viewBox="0 0 121 120" fill="none" xmlns="http://www.w3.org/2000/svg">
<path d="M68.552 58.8213H70.6054V62.0906C69.9547 62.1279 69.272 62.1706 68.52 62.2133V69.8293C69.5014 69.8293 70.4827 69.8773 71.4534 69.8133C72.1734 69.7653 72.5307 70.0426 72.776 70.6933C73.0694 71.4666 73.4587 72.1973 73.8907 73.1253H68.552V79.4399C69.8854 79.4399 71.1867 79.4399 72.4827 79.4399C72.84 79.4399 73.2027 79.4773 73.5547 79.4346C77.1974 78.9866 80.488 79.6106 82.936 82.704H68.5254C68.4934 83.3386 68.4507 83.7973 68.4507 84.2559C68.4507 92.4853 68.4667 100.72 68.44 108.949C68.424 113.579 65.7094 116.907 61.3894 117.653C60.7654 117.76 60.12 117.76 59.4907 117.76C43.4214 117.765 27.3574 117.765 11.288 117.76C5.82137 117.76 2.33871 114.309 2.33337 108.821C2.33337 76.6133 2.33337 44.3999 2.33871 12.1866C2.34404 6.62395 5.80537 3.19995 11.3627 3.19995C27.3894 3.19995 43.416 3.19995 59.448 3.19995C64.9947 3.19995 68.4454 6.63462 68.456 12.2026C68.472 20.3573 68.456 28.5066 68.456 36.6613C68.456 37.1306 68.456 37.6053 68.456 38.2346H83.2187C81.7254 39.3866 80.4774 40.4053 79.1654 41.3333C78.8507 41.5519 78.3387 41.5413 77.912 41.5413C74.8187 41.5573 71.7254 41.552 68.5467 41.552V47.7226H73.9227C73.4054 48.8693 73.0107 49.8453 72.5094 50.7679C72.392 50.9866 71.9227 51.1039 71.608 51.1146C70.6214 51.1573 69.6347 51.1306 68.5574 51.1306V58.8159L68.552 58.8213ZM68.392 47.7493H23.992V37.2159C24.232 37.0933 24.44 36.9866 24.648 36.8693C26.8774 35.6479 27.9814 33.2693 27.3947 30.9599C26.7974 28.6026 24.7814 26.9919 22.376 26.9493C19.992 26.9013 17.864 28.5013 17.24 30.7999C16.584 33.2213 17.5867 35.5839 19.9174 36.8159C20.5467 37.1466 20.6214 37.5413 20.6214 38.1279C20.6054 41.6266 20.6107 45.1253 20.616 48.6239C20.616 50.6506 21.1014 51.1253 23.1654 51.1253C37.8 51.1253 52.4347 51.1253 67.0694 51.1253C67.4907 51.1253 67.9174 51.1253 68.392 51.1253V47.7439V47.7493ZM23.9867 73.1306H68.344V69.8773C68.0134 69.8613 67.7787 69.8346 67.544 69.8346C52.632 69.8346 37.72 69.8346 22.808 69.8346C21.1707 69.8346 20.6214 70.4159 20.616 72.0959C20.6107 75.5946 20.5947 79.0933 20.6267 82.5919C20.632 83.3653 20.504 83.8453 19.7094 84.2559C17.6027 85.3493 16.6427 87.7546 17.2187 90.0373C17.8054 92.3786 19.8534 93.9893 22.2587 94.0106C24.6054 94.0319 26.648 92.5066 27.32 90.2239C28.0934 87.6106 26.936 85.3333 23.9867 83.7226V73.1253V73.1306ZM68.376 79.4453H67.1334C63.0747 79.4453 59.0214 79.4453 54.9627 79.4453C52.8667 79.4453 52.4347 79.8773 52.4347 81.9626C52.4347 87.8079 52.424 93.6533 52.4454 99.4986C52.4454 100.203 52.2907 100.613 51.6027 100.981C49.4 102.16 48.408 104.619 49.0534 106.971C49.6614 109.179 51.8 110.805 54.104 110.805C56.4614 110.805 58.6107 109.141 59.192 106.864C59.784 104.555 58.776 102.144 56.6267 100.976C55.976 100.624 55.736 100.256 55.7414 99.5146C55.7734 94.3039 55.7574 89.0986 55.7627 83.8879C55.7627 83.5466 55.8214 83.2053 55.8587 82.7413H68.3654V79.4346L68.376 79.4453ZM55.768 38.272V36.8479C55.768 31.8026 55.7894 26.7573 55.7467 21.7119C55.7414 20.8479 55.976 20.384 56.7494 19.952C58.872 18.768 59.816 16.2986 59.16 14.016C58.5094 11.7706 56.4187 10.2026 54.0987 10.2133C51.7734 10.224 49.6614 11.8346 49.0587 14.048C48.4294 16.352 49.3947 18.8266 51.5174 19.9626C52.2854 20.3733 52.4614 20.8426 52.456 21.632C52.4294 27.472 52.44 33.312 52.4454 39.152C52.4454 41.0613 52.9574 41.5786 54.8347 41.5786C58.968 41.5786 63.1014 41.5733 67.2294 41.5626C67.608 41.5626 67.9867 41.5199 68.3547 41.4986V38.272H55.7734H55.768ZM68.408 58.8159H67.0107C59.4587 58.8159 51.9014 58.8106 44.3494 58.8266C43.6294 58.8266 43.1547 58.7253 42.7654 57.9733C41.624 55.7919 39.2134 54.7999 36.9094 55.4133C34.536 56.0426 32.9894 58.0373 32.984 60.4746C32.984 62.9066 34.5254 64.9119 36.888 65.5519C39.192 66.1706 41.608 65.1839 42.7547 63.0133C43.144 62.2773 43.592 62.1386 44.328 62.1439C51.88 62.1653 59.4374 62.1546 66.9894 62.1546H68.408V58.8159ZM35.3894 104.581C33.96 104.581 32.5307 104.56 31.1014 104.587C29.912 104.608 29.1867 105.28 29.2134 106.267C29.2347 107.2 29.9334 107.888 31.0534 107.899C33.9547 107.931 36.8507 107.931 39.752 107.899C40.8667 107.888 41.5654 107.195 41.5814 106.256C41.5974 105.275 40.872 104.608 39.6827 104.587C38.2534 104.56 36.824 104.581 35.3947 104.581H35.3894Z" fill="url(#paint0_linear_124_1546)"/>
<path d="M118.568 60.5813C118.456 72.96 108.461 82.864 96.168 82.7733C83.7947 82.6827 73.9067 72.6933 73.9867 60.3787C74.0667 48.016 84.0827 38.0853 96.376 38.192C108.755 38.2933 118.68 48.3093 118.573 60.5867L118.568 60.5813ZM97.9707 73.424C98.3067 73.312 98.6054 73.2107 98.904 73.1093C102.221 72 104.328 69.184 104.216 66.0053C104.104 62.8053 101.864 60.1067 98.4827 59.2427C97.4534 58.9813 96.36 58.9707 95.304 58.8107C93.2827 58.5067 91.7414 56.9493 91.6507 55.1413C91.56 53.2853 92.8667 51.648 94.92 51.1627C97.1334 50.64 98.968 51.4133 100.552 52.928C101.352 53.6907 102.312 53.792 102.979 53.1093C103.709 52.3627 103.731 51.44 103.032 50.7627C102.189 49.9467 101.24 49.0933 100.173 48.704C98.6267 48.1387 97.5707 47.584 97.7787 45.6427C97.8747 44.7467 97.0747 44.1547 96.0774 44.224C95.0854 44.2933 94.5894 44.8907 94.5574 45.8667C94.536 46.496 94.5574 47.1307 94.5574 47.7493C94.2267 47.8613 93.9654 47.9573 93.704 48.0427C90.28 49.1733 88.216 51.92 88.3227 55.2C88.424 58.4053 90.7547 61.1253 94.2053 61.9573C95.24 62.208 96.3334 62.1973 97.384 62.384C99.4107 62.7467 100.867 64.3627 100.883 66.1813C100.899 68.0107 99.4694 69.584 97.4427 70.0427C95.368 70.5067 93.7307 69.7707 92.2587 68.3627C91.416 67.5573 90.36 67.6213 89.7254 68.3627C89.112 69.0827 89.1707 70.048 90.0187 70.784C90.824 71.4827 91.6507 72.2773 92.6107 72.64C93.9814 73.1627 94.8614 73.712 94.7707 75.3973C94.7227 76.3253 95.5547 76.8373 96.536 76.7253C97.464 76.624 97.928 76.032 97.9654 75.1147C97.9867 74.56 97.9654 74.0053 97.9654 73.424H97.9707Z" fill="#5D19FF"/>
<path d="M68.392 47.7493V51.1307C67.9173 51.1307 67.4907 51.1307 67.0693 51.1307C52.4347 51.1307 37.8 51.1307 23.1653 51.1307C21.096 51.1307 20.616 50.656 20.616 48.6293C20.616 45.1307 20.6107 41.632 20.6213 38.1333C20.6213 37.5467 20.5467 37.1573 19.9173 36.8213C17.592 35.5893 16.5893 33.2267 17.24 30.8053C17.864 28.5013 19.992 26.9067 22.376 26.9547C24.7813 27.0027 26.792 28.6133 27.3947 30.9653C27.9813 33.28 26.8773 35.6533 24.648 36.8747C24.44 36.9867 24.2267 37.0933 23.992 37.2213V47.7547H68.3973L68.392 47.7493Z" fill="#0DFFEB"/>
<path d="M23.992 73.1307V83.728C26.9413 85.3387 28.0987 87.616 27.3253 90.2293C26.648 92.512 24.6107 94.0373 22.264 94.016C19.8587 93.9947 17.816 92.384 17.224 90.0427C16.648 87.76 17.608 85.3547 19.7147 84.2614C20.5093 83.8507 20.6373 83.3707 20.632 82.5973C20.6 79.0987 20.6107 75.6 20.6213 72.1014C20.6213 70.4214 21.176 69.84 22.8133 69.84C37.7253 69.8347 52.6373 69.84 67.5493 69.84C67.784 69.84 68.0133 69.8614 68.3493 69.8827V73.136H23.992V73.1307Z" fill="#0DFFEB"/>
<path d="M68.376 79.4453V82.752H55.8694C55.8267 83.216 55.7734 83.5573 55.7734 83.8986C55.768 89.1093 55.784 94.3146 55.752 99.5253C55.752 100.261 55.9867 100.629 56.6374 100.987C58.7814 102.155 59.7894 104.565 59.2027 106.875C58.6214 109.152 56.4667 110.816 54.1147 110.816C51.8054 110.816 49.6667 109.189 49.064 106.981C48.4187 104.629 49.4107 102.176 51.6134 100.992C52.3014 100.624 52.456 100.213 52.456 99.5093C52.4347 93.664 52.44 87.8186 52.4454 81.9733C52.4454 79.888 52.8827 79.456 54.9734 79.456C59.032 79.456 63.0854 79.456 67.144 79.456H68.3867L68.376 79.4453Z" fill="#0DFFEB"/>
<path d="M55.7733 38.2667H68.3547V41.4934C67.9813 41.5147 67.608 41.5574 67.2293 41.5574C63.096 41.5681 58.9627 41.5734 54.8347 41.5734C52.9573 41.5734 52.4453 41.0561 52.4453 39.1467C52.44 33.3067 52.4293 27.4667 52.456 21.6267C52.456 20.8374 52.2853 20.3681 51.5173 19.9574C49.3947 18.8161 48.4293 16.3467 49.0587 14.0427C49.6613 11.8294 51.7787 10.2187 54.0987 10.2081C56.4187 10.1974 58.5147 11.7654 59.16 14.0107C59.8213 16.2934 58.872 18.7627 56.7493 19.9467C55.9813 20.3787 55.7413 20.8427 55.7467 21.7067C55.7893 26.7521 55.768 31.7974 55.768 36.8427V38.2667H55.7733Z" fill="#0DFFEB"/>
<path d="M68.408 58.8107V62.1493H66.9894C59.4374 62.1493 51.88 62.16 44.328 62.1387C43.592 62.1387 43.144 62.272 42.7547 63.008C41.608 65.1787 39.192 66.1653 36.888 65.5467C34.52 64.912 32.9787 62.9067 32.984 60.4693C32.984 58.0373 34.536 56.0427 36.9094 55.408C39.2134 54.7947 41.6294 55.792 42.7654 57.968C43.16 58.72 43.6294 58.8213 44.3494 58.8213C51.9014 58.8053 59.4587 58.8107 67.0107 58.8107H68.408Z" fill="#0DFFEB"/>
<path d="M35.3893 104.581C36.8186 104.581 38.248 104.56 39.6773 104.587C40.8666 104.608 41.592 105.275 41.576 106.256C41.56 107.189 40.856 107.883 39.7466 107.899C36.8453 107.931 33.9493 107.931 31.048 107.899C29.9333 107.888 29.2293 107.2 29.208 106.267C29.1866 105.28 29.9066 104.608 31.096 104.587C32.5253 104.56 33.9546 104.581 35.384 104.581H35.3893Z" fill="#0DFFEB"/>
<path d="M97.976 73.424C97.976 74.0054 97.992 74.56 97.976 75.1147C97.944 76.032 97.4747 76.624 96.5467 76.7254C95.5653 76.832 94.728 76.3254 94.7813 75.3974C94.872 73.712 93.9973 73.1627 92.6213 72.64C91.656 72.2774 90.8347 71.4774 90.0293 70.784C89.1867 70.0534 89.1227 69.0827 89.736 68.3627C90.3707 67.6214 91.4267 67.5627 92.2694 68.3627C93.7467 69.7707 95.384 70.512 97.4534 70.0427C99.48 69.5894 100.909 68.0107 100.893 66.1814C100.877 64.3627 99.416 62.7467 97.3947 62.384C96.344 62.1974 95.2507 62.208 94.216 61.9574C90.76 61.1254 88.4347 58.4054 88.3334 55.2C88.2267 51.9147 90.2907 49.168 93.7147 48.0427C93.976 47.9574 94.2374 47.8614 94.568 47.7494C94.568 47.1307 94.552 46.496 94.568 45.8667C94.6 44.8907 95.1013 44.2934 96.088 44.224C97.0853 44.1547 97.8853 44.752 97.7893 45.6427C97.576 47.584 98.6373 48.1387 100.184 48.704C101.251 49.0934 102.2 49.952 103.043 50.7627C103.741 51.44 103.72 52.3627 102.989 53.1094C102.323 53.792 101.357 53.6907 100.563 52.928C98.9787 51.4134 97.1387 50.64 94.9307 51.1627C92.8827 51.648 91.5707 53.2854 91.6614 55.1414C91.752 56.944 93.288 58.5067 95.3147 58.8107C96.3707 58.9707 97.464 58.976 98.4934 59.2427C101.875 60.1067 104.12 62.8054 104.227 66.0054C104.333 69.184 102.232 72 98.9147 73.1094C98.616 73.2107 98.3173 73.312 97.9813 73.424H97.976Z" fill="#0DFFEB"/>
<defs>
<linearGradient id="paint0_linear_124_1546" x1="2.33337" y1="60.48" x2="83.224" y2="60.48" gradientUnits="userSpaceOnUse">
<stop stop-color="#5D19FF"/>
<stop offset="1" stop-color="#018EFF"/>
</linearGradient>
</defs>
</svg>
