<svg width="121" height="120" viewBox="0 0 121 120" fill="none" xmlns="http://www.w3.org/2000/svg">
<g clip-path="url(#clip0_124_1540)">
<path d="M119.885 60.4374C119.944 55.488 118.227 51.2 114.888 47.5627C112.861 45.3547 111.933 42.7627 112.099 39.7654C112.589 30.9654 106.04 22.64 97.3254 21.088C96.1414 20.88 95.7627 20.4 95.4961 19.2587C93.8374 12.1387 89.6347 7.14138 82.5574 5.12004C75.4854 3.09871 69.2721 4.99204 64.2001 10.3574C63.6987 10.8907 63.3361 11.792 63.3307 12.528C63.3094 15.9467 63.2987 19.3707 63.2934 22.7894V23.2907C63.2934 27.104 63.2934 30.9227 63.2934 34.736C63.2934 35.296 63.2934 35.8614 63.2934 36.4214V97.4294H63.3041C63.3041 101.051 63.3094 104.667 63.3254 108.283C63.3254 108.848 63.7201 109.525 64.1307 109.963C69.1547 115.301 75.2987 117.216 82.3441 115.296C89.4481 113.36 93.7681 108.469 95.4214 101.328C95.7361 99.9734 96.2374 99.5414 97.5014 99.296C105.928 97.648 112.403 89.712 112.093 81.2427C111.965 77.7387 112.968 74.864 115.309 72.288C118.328 68.9547 119.821 64.9387 119.875 60.4374H119.885Z" fill="#0DFFEB"/>
<path d="M2.01336 59.92C1.95469 64.8693 3.67202 69.1573 7.01069 72.7947C9.03736 75.0027 9.96536 77.5947 9.80002 80.592C9.30936 89.392 15.8587 97.7173 24.5734 99.2693C25.7574 99.4773 26.136 99.9573 26.4027 101.099C28.0614 108.219 32.264 113.216 39.3414 115.237C46.4134 117.259 52.6267 115.365 57.6987 110C58.2 109.467 58.5627 108.565 58.568 107.829C58.5894 104.411 58.6 100.987 58.6054 97.568V97.0667C58.6054 93.2533 58.6054 89.4347 58.6054 85.6213C58.6054 85.0613 58.6054 84.496 58.6054 83.936V22.9227H58.5947C58.5947 19.3013 58.5894 15.6853 58.5734 12.0693C58.5734 11.504 58.1787 10.8267 57.768 10.3893C52.744 5.05065 46.5947 3.14132 39.5494 5.06132C32.4454 6.99732 28.1254 11.888 26.472 19.0293C26.1574 20.384 25.656 20.816 24.392 21.0613C15.9654 22.7093 9.49069 30.6453 9.80002 39.1147C9.92802 42.6187 8.92536 45.4933 6.58402 48.0693C3.56536 51.4027 2.07202 55.4187 2.01869 59.92H2.01336Z" fill="#0DFFEB"/>
<path d="M24.6214 20.656C26.5414 24.4053 29.1494 27.4346 32.8774 29.4186C36.8667 31.5466 41.1227 31.8986 45.5014 31.408C46.8401 31.2586 47.6507 30.1973 47.5014 29.0453C47.3414 27.8506 46.3921 27.2266 45.0054 27.2213C42.8987 27.2106 40.7387 27.3813 38.7014 26.976C32.8561 25.8026 29.4161 21.8613 27.4747 16.448C27.3201 16.0106 27.4214 15.392 27.6081 14.944C32.7334 2.55462 49.6081 -0.117381 58.3067 10.0853C58.6481 10.4853 58.9254 11.088 58.9254 11.6C58.9574 24.2453 58.9521 36.896 58.9467 49.5413C58.9467 49.7173 58.9094 49.888 58.8827 50.1813C54.3441 51.1626 49.8801 51.3653 45.6934 48.864C43.4801 47.5413 42.0934 45.5093 41.2294 43.1093C40.8241 41.984 40.1094 41.2906 38.8721 41.4026C37.5121 41.5253 36.5787 42.9173 37.1921 44.2346C38.2587 46.528 39.5654 48.7093 40.7494 50.896C39.9067 51.232 38.7014 51.6426 37.5654 52.192C35.4481 53.2106 33.7734 54.7733 32.4827 56.7306C31.7947 57.7706 32.0294 59.024 32.9521 59.68C33.9121 60.3626 35.1654 60.2293 35.8801 59.184C38.8187 54.896 43.3201 54.1173 47.8641 54.4853C51.5281 54.7786 55.1281 55.2746 58.9521 54.528V55.9093C58.9521 73.376 58.9627 90.848 58.9147 108.315C58.9147 109.056 58.5521 109.968 58.0507 110.517C48.9627 120.496 32.7174 117.659 27.4534 105.227C27.0321 104.235 27.0907 103.424 27.6081 102.491C30.6054 97.024 35.4961 95.216 41.3734 95.2853C42.3867 95.296 43.4001 95.4346 44.4134 95.5093C45.9814 95.6266 46.8987 95.0346 47.0801 93.792C47.2721 92.4693 46.5147 91.5146 44.9361 91.328C36.5787 90.3413 29.2454 91.9573 24.2907 99.7066C18.1947 98.2666 13.7681 94.768 11.1227 89.0666C9.89072 86.416 9.39472 83.616 9.55472 80.6826C9.71472 77.712 8.74939 75.1253 6.72806 72.9386C3.50672 69.456 1.77339 65.3386 1.66672 60.592C1.56539 55.8026 3.04806 51.5146 6.27472 47.9573C8.63206 45.3546 9.66672 42.448 9.54406 38.9066C9.25072 30.2293 15.6881 22.496 24.6161 20.6613L24.6214 20.656ZM72.3494 75.04C77.9707 75.1093 82.4027 79.1733 82.8881 84.752C83.0321 86.4213 83.0054 88.112 82.9734 89.7866C82.9574 90.6666 83.1707 91.1786 84.0187 91.648C86.6801 93.104 87.8214 96.1973 86.9041 99.0453C86.0241 101.781 83.5707 103.515 80.6641 103.451C77.8427 103.392 75.3734 101.413 74.6854 98.6773C73.9974 95.92 75.2134 93.0933 77.6614 91.6C78.0934 91.3386 78.6801 90.8693 78.6961 90.4693C78.7814 88.6186 78.8187 86.7466 78.6374 84.9066C78.3067 81.6106 75.6827 79.3173 72.3441 79.2746C69.6027 79.2373 66.8614 79.264 64.1201 79.2746C63.8267 79.2746 63.5387 79.344 63.2721 79.376C63.2347 79.5466 63.2027 79.632 63.2027 79.7173C63.1974 89.4026 63.1814 99.088 63.2241 108.773C63.2241 109.344 63.6241 110.027 64.0347 110.469C69.1174 115.867 75.3414 117.797 82.4721 115.856C89.6667 113.899 94.0401 108.96 95.7147 101.744C96.0347 100.373 96.5414 99.9413 97.8214 99.6906C106.349 98.0266 112.904 90.0053 112.595 81.4453C112.467 77.904 113.48 75.0026 115.848 72.3946C118.904 69.0293 120.413 64.9706 120.472 60.4213C120.531 55.4186 118.792 51.088 115.416 47.408C113.368 45.1786 112.424 42.56 112.595 39.5306C113.091 30.64 106.461 22.224 97.6401 20.6613C96.4401 20.448 96.0561 19.968 95.7894 18.816C94.1094 11.6213 89.8534 6.57062 82.6907 4.52795C75.5334 2.48529 69.2401 4.39462 64.1094 9.81862C63.5974 10.3573 63.2347 11.2693 63.2294 12.0106C63.1707 21.2533 63.1921 30.496 63.1921 39.7386C63.1921 40.16 63.2294 40.5866 63.2507 41.0506C66.5147 41.0506 69.6507 41.1306 72.7814 41.0293C75.7681 40.9333 78.2481 38.6186 78.6001 35.6426C78.7867 34.0693 78.6534 32.464 78.7601 30.88C78.8347 29.8026 78.5574 29.1573 77.5281 28.5866C75.1281 27.248 74.0294 24.416 74.6481 21.7386C75.2454 19.1626 77.5867 17.1146 80.1681 16.9066C83.0694 16.672 85.5921 18.144 86.6907 20.704C87.7627 23.2 87.2721 26.48 85.0054 27.888C83.0054 29.1306 82.7867 30.64 82.9734 32.5866C83.0161 33.024 82.9787 33.472 82.9787 33.9146C82.9467 40.896 78.5041 45.3066 71.4961 45.312C68.7654 45.312 66.0401 45.312 63.2561 45.312V52.368C63.4054 52.4266 63.4854 52.4853 63.5601 52.4853C71.6027 52.4853 79.6507 52.5386 87.6934 52.464C90.5894 52.4373 93.1014 50.0426 93.4321 47.1573C93.6134 45.584 93.4907 43.9786 93.5867 42.3893C93.6561 41.2853 93.3894 40.5973 92.3014 39.9946C89.9121 38.6666 88.8507 35.7866 89.5067 33.12C90.1521 30.5013 92.5521 28.4853 95.2134 28.336C98.0561 28.176 100.6 29.7706 101.608 32.3573C102.595 34.88 101.971 38.1226 99.6934 39.4933C97.8534 40.6026 97.6454 41.9573 97.8001 43.7226C97.8481 44.2506 97.8107 44.784 97.8054 45.312C97.7787 52.3466 93.4054 56.7466 86.3921 56.7573C79.1441 56.768 71.8907 56.7573 64.6427 56.7573C64.1787 56.7573 63.7094 56.7573 63.2827 56.7573V63.5946C63.9121 63.5946 64.4347 63.5946 64.9627 63.5946C72.4774 63.6 79.9921 63.5573 87.5067 63.6266C92.2534 63.6746 96.3547 66.9066 97.3841 71.552C97.8374 73.5893 97.7627 75.76 97.7787 77.872C97.7841 79.024 97.9707 79.7493 99.1121 80.384C101.491 81.712 102.52 84.6186 101.843 87.28C101.187 89.8453 98.8347 91.824 96.2267 92.0053C93.3947 92.2026 90.8294 90.6293 89.7841 88.0533C88.7654 85.536 89.3254 82.2666 91.6187 80.9066C93.5974 79.7333 93.7041 78.272 93.5761 76.4426C93.5441 75.9573 93.5761 75.472 93.5707 74.9813C93.5494 70.352 91.0534 67.8346 86.4507 67.8293C79.1547 67.8186 71.8641 67.8293 64.5681 67.8293C64.1414 67.8293 63.7147 67.872 63.2347 67.8933V75.0293C66.3387 75.0293 69.3414 75.0026 72.3387 75.0346L72.3494 75.04Z" fill="url(#paint0_linear_124_1540)"/>
</g>
<defs>
<linearGradient id="paint0_linear_124_1540" x1="1.66672" y1="60.1653" x2="120.477" y2="60.1653" gradientUnits="userSpaceOnUse">
<stop stop-color="#5D19FF"/>
<stop offset="1" stop-color="#018EFF"/>
</linearGradient>
<clipPath id="clip0_124_1540">
<rect width="120" height="120" fill="white" transform="translate(0.600037)"/>
</clipPath>
</defs>
</svg>
