<svg width="35" height="36" viewBox="0 0 35 36" fill="none" xmlns="http://www.w3.org/2000/svg">
<path fill-rule="evenodd" clip-rule="evenodd" d="M2 17.9961C2 26.5565 8.93959 33.4961 17.5 33.4961C26.0604 33.4961 33 26.5565 33 17.9961C33 9.43568 26.0604 2.49609 17.5 2.49609C8.93959 2.49609 2 9.43568 2 17.9961ZM17.5 0.496094C7.83502 0.496094 0 8.33111 0 17.9961C0 27.6611 7.83502 35.4961 17.5 35.4961C27.165 35.4961 35 27.6611 35 17.9961C35 8.33111 27.165 0.496094 17.5 0.496094Z" fill="white"/>
<path d="M13.3888 25.4961H10.289V15.5311H13.3888V25.4961ZM11.8074 14.1065C10.8081 14.1065 10 13.297 10 12.3008C10 11.3045 10.8091 10.4961 11.8074 10.4961C12.8035 10.4961 13.6137 11.3055 13.6137 12.3008C13.6137 13.297 12.8035 14.1065 11.8074 14.1065ZM25 25.4961H21.9023V20.6501C21.9023 19.4942 21.8813 18.0076 20.2914 18.0076C18.6785 18.0076 18.4305 19.2664 18.4305 20.5661V25.4961H15.3327V15.5311H18.3065V16.8927H18.3485C18.7625 16.1095 19.7734 15.2833 21.2813 15.2833C24.42 15.2833 25 17.3473 25 20.0307V25.4961Z" fill="white"/>
</svg>
