<svg width="26" height="26" viewBox="0 0 26 26" fill="none" xmlns="http://www.w3.org/2000/svg">
<path fill-rule="evenodd" clip-rule="evenodd" d="M13.2612 0.261108C13.8088 0.261108 14.2528 0.705083 14.2528 1.25275V12.0083H25.0084C25.556 12.0083 26 12.4523 26 12.9999C26 13.5476 25.556 13.9916 25.0084 13.9916H14.2528V24.7471C14.2528 25.2948 13.8088 25.7388 13.2612 25.7388C12.7135 25.7388 12.2695 25.2948 12.2695 24.7471V13.9916H1.51398C0.966314 13.9916 0.522339 13.5476 0.522339 12.9999C0.522339 12.4523 0.966314 12.0083 1.51398 12.0083H12.2695V1.25275C12.2695 0.705083 12.7135 0.261108 13.2612 0.261108Z" fill="#5D19FF"/>
</svg>
