<svg width="348" height="65" viewBox="0 0 348 65" fill="none" xmlns="http://www.w3.org/2000/svg">
<g clip-path="url(#clip0_124_1763)">
<path d="M80.2634 39.6918C81.5741 37.2602 83.3549 35.3709 85.6148 34.024C87.8748 32.6771 90.3878 31.9991 93.163 31.9991C95.215 31.9991 97.2308 32.442 99.2286 33.337C101.217 34.2319 102.808 35.4161 103.983 36.8986V21.6577H110.528V63.891H103.983V59.1633C102.917 60.6819 101.452 61.9385 99.5721 62.9238C97.6918 63.9091 95.5404 64.4063 93.1087 64.4063C90.3787 64.4063 87.8748 63.7102 85.6239 62.3272C83.364 60.9441 81.5832 59.0096 80.2724 56.5147C78.9617 54.0288 78.3108 51.2084 78.3108 48.0626C78.3108 44.9168 78.9617 42.1235 80.2724 39.6918H80.2634ZM102.646 42.5393C101.751 40.9484 100.585 39.728 99.1382 38.8964C97.6918 38.0647 96.137 37.6398 94.4647 37.6398C92.7923 37.6398 91.2375 38.0466 89.7912 38.8602C88.3448 39.6738 87.1787 40.876 86.2838 42.4489C85.3888 44.0218 84.9459 45.8931 84.9459 48.0626C84.9459 50.2321 85.3888 52.1214 86.2838 53.7576C87.1787 55.3937 88.3539 56.6322 89.8183 57.4909C91.2827 58.3407 92.8285 58.7746 94.4556 58.7746C96.0828 58.7746 97.6828 58.3588 99.1291 57.5181C100.575 56.6864 101.742 55.457 102.637 53.848C103.531 52.2389 103.974 50.3496 103.974 48.1801C103.974 46.0106 103.531 44.1394 102.637 42.5393H102.646Z" fill="white"/>
<path d="M118.872 39.6915C120.183 37.2599 121.964 35.3706 124.224 34.0237C126.484 32.6768 128.978 31.9988 131.708 31.9988C134.176 31.9988 136.328 32.4869 138.172 33.4542C140.016 34.4214 141.48 35.6237 142.583 37.07V32.0982H149.128V63.8907H142.583V59.2172C141.48 60.6997 139.98 61.9291 138.081 62.9235C136.183 63.9088 134.023 64.406 131.591 64.406C128.897 64.406 126.429 63.7099 124.187 62.3269C121.946 60.9438 120.174 59.0093 118.863 56.5144C117.552 54.0284 116.901 51.2081 116.901 48.0623C116.901 44.9165 117.552 42.1232 118.863 39.6915H118.872ZM141.254 42.539C140.359 40.948 139.193 39.7277 137.747 38.896C136.301 38.0644 134.746 37.6395 133.073 37.6395C131.401 37.6395 129.846 38.0463 128.4 38.8599C126.954 39.6735 125.787 40.8757 124.893 42.4486C123.998 44.0215 123.555 45.8927 123.555 48.0623C123.555 50.2318 123.998 52.1211 124.893 53.7573C125.787 55.3934 126.963 56.6319 128.427 57.4906C129.891 58.3404 131.437 58.7743 133.064 58.7743C134.692 58.7743 136.292 58.3584 137.738 57.5178C139.184 56.6861 140.35 55.4567 141.245 53.8477C142.14 52.2386 142.583 50.3493 142.583 48.1798C142.583 46.0103 142.14 44.139 141.245 42.539H141.254Z" fill="white"/>
<path d="M165.254 37.2963V55.1768C165.254 56.352 165.525 57.2017 166.077 57.7079C166.628 58.2232 167.568 58.4763 168.897 58.4763H172.884V63.891H167.758C164.829 63.891 162.596 63.204 161.042 61.839C159.487 60.474 158.709 58.2503 158.709 55.1768V37.2963H155.003V31.9991H158.709V21.6577H165.254V31.9991H172.884V37.2963H165.254Z" fill="white"/>
<path d="M178.669 39.6913C179.98 37.2597 181.761 35.3704 184.02 34.0235C186.28 32.6766 188.775 31.9986 191.505 31.9986C193.973 31.9986 196.125 32.4867 197.969 33.454C199.813 34.4212 201.277 35.6235 202.38 37.0698V31.9263H208.925V63.8905H202.38V59.217C201.277 60.6995 199.777 61.9289 197.878 62.9233C195.98 63.9086 193.819 64.4058 191.388 64.4058C188.694 64.4058 186.226 63.7097 183.984 62.3267C181.742 60.9436 179.971 59.0091 178.66 56.5142C177.349 54.0283 176.698 51.2079 176.698 48.0621C176.698 44.9163 177.349 42.123 178.66 39.6913H178.669ZM201.051 42.5388C200.156 40.9479 198.99 39.7275 197.544 38.8959C196.097 38.0642 194.543 37.6393 192.87 37.6393C191.198 37.6393 189.643 38.0461 188.197 38.8597C186.75 39.6733 185.584 40.8755 184.689 42.4484C183.794 44.0213 183.352 45.8926 183.352 48.0621C183.352 50.2316 183.794 52.1209 184.689 53.7571C185.584 55.3932 186.76 56.6317 188.224 57.4904C189.688 58.3402 191.234 58.7741 192.861 58.7741C194.488 58.7741 196.088 58.3583 197.535 57.5176C198.981 56.6859 200.147 55.4565 201.042 53.8475C201.937 52.2384 202.38 50.3491 202.38 48.1796C202.38 46.0101 201.937 44.1389 201.042 42.5388H201.051Z" fill="white"/>
<path d="M223.967 21.6577V63.891H217.477V21.6577H223.967Z" fill="white"/>
<path d="M233.468 27.4342C232.835 26.8014 232.528 26.024 232.528 25.0929C232.528 24.1618 232.844 23.3844 233.468 22.7516C234.101 22.1189 234.878 21.8115 235.809 21.8115C236.74 21.8115 237.473 22.1279 238.105 22.7516C238.738 23.3844 239.046 24.1618 239.046 25.0929C239.046 26.024 238.729 26.8014 238.105 27.4342C237.473 28.067 236.713 28.3743 235.809 28.3743C234.905 28.3743 234.101 28.0579 233.468 27.4342Z" fill="white"/>
<path d="M239 31.9263H232.51V63.8905H239V31.9263Z" fill="white"/>
<path d="M255.118 37.2965V55.1769C255.118 56.3521 255.389 57.2018 255.94 57.708C256.492 58.2233 257.432 58.4764 258.761 58.4764H262.747V63.8912H257.622C254.693 63.8912 252.46 63.2042 250.905 61.8392C249.35 60.4742 248.573 58.2504 248.573 55.1769V37.2965H244.867V31.9992H248.573V21.8025H255.118V31.9992H262.747V37.2965H255.118Z" fill="white"/>
<path d="M269.672 27.525C269.048 26.9013 268.732 26.1238 268.732 25.2018C268.732 24.2798 269.048 23.5023 269.672 22.8786C270.296 22.2549 271.073 21.9385 271.995 21.9385C272.917 21.9385 273.649 22.2549 274.273 22.8786C274.897 23.5023 275.213 24.2798 275.213 25.2018C275.213 26.1238 274.897 26.9013 274.273 27.525C273.649 28.1487 272.89 28.4651 271.995 28.4651C271.1 28.4651 270.296 28.1487 269.672 27.525Z" fill="white"/>
<path d="M275.222 31.9263H268.732V63.8905H275.222V31.9263Z" fill="white"/>
<path d="M283.566 39.6554C284.877 37.2056 286.685 35.3163 289.008 33.9875C291.322 32.6587 293.98 31.9988 296.981 31.9988C300.777 31.9988 303.914 32.9027 306.409 34.7016C308.895 36.5005 310.576 39.0768 311.453 42.4215H304.447C303.878 40.8667 302.965 39.6463 301.717 38.7785C300.461 37.9017 298.888 37.4678 296.99 37.4678C294.332 37.4678 292.217 38.4079 290.644 40.2882C289.071 42.1684 288.285 44.7989 288.285 48.1707C288.285 51.5425 289.071 54.1912 290.644 56.0895C292.217 57.9878 294.332 58.937 296.99 58.937C300.75 58.937 303.236 57.2827 304.447 53.9832H311.453C310.54 57.1742 308.832 59.7054 306.328 61.5856C303.824 63.4659 300.705 64.406 296.99 64.406C293.989 64.406 291.331 63.728 289.017 62.3811C286.703 61.0342 284.886 59.1359 283.575 56.6861C282.264 54.2364 281.613 51.3979 281.613 48.1707C281.613 44.9436 282.264 42.1051 283.575 39.6554H283.566Z" fill="white"/>
<path d="M317.726 39.6913C319.037 37.2597 320.818 35.3704 323.078 34.0235C325.338 32.6766 327.833 31.9986 330.563 31.9986C333.03 31.9986 335.182 32.4867 337.026 33.454C338.87 34.4212 340.334 35.6235 341.437 37.0698V31.9263H347.982V63.8905H341.437V59.217C340.334 60.6995 338.834 61.9289 336.936 62.9233C335.037 63.9086 332.877 64.4058 330.445 64.4058C327.751 64.4058 325.283 63.7097 323.042 62.3267C320.8 60.9436 319.028 59.0091 317.717 56.5142C316.406 54.0283 315.756 51.2079 315.756 48.0621C315.756 44.9163 316.406 42.123 317.717 39.6913H317.726ZM340.108 42.5388C339.214 40.9479 338.047 39.7275 336.601 38.8959C335.155 38.0642 333.6 37.6393 331.928 37.6393C330.255 37.6393 328.7 38.0461 327.254 38.8597C325.808 39.6733 324.642 40.8755 323.747 42.4484C322.852 44.0213 322.409 45.8926 322.409 48.0621C322.409 50.2316 322.852 52.1209 323.747 53.7571C324.642 55.3932 325.817 56.6317 327.281 57.4904C328.746 58.3402 330.291 58.7741 331.919 58.7741C333.546 58.7741 335.146 58.3583 336.592 57.5176C338.038 56.6859 339.205 55.4565 340.099 53.8475C340.994 52.2384 341.437 50.3491 341.437 48.1796C341.437 46.0101 340.994 44.1389 340.099 42.5388H340.108Z" fill="white"/>
<path d="M62.7715 45.1789L35.4446 0.49585C32.2898 2.4213 29.6954 4.91625 27.6886 7.76374C31.4129 7.02249 35.309 6.69706 39.2594 6.76938V38.9054C39.2594 41.9337 39.5306 44.7721 39.9645 47.3756C47.2324 50.0784 55.6302 49.5451 62.7625 45.1789H62.7715Z" fill="#5D19FF"/>
<path d="M26.7667 36.5C21.153 27.3157 21.8762 16.0433 27.6977 7.76294C18.0343 9.68839 9.57322 14.5427 4.59236 23.4287C-3.69701 37.6029 0.569709 56.4596 7.03307 64.4326C12.0049 64.4326 43.3996 64.2157 46.22 64.4326C45.524 63.5467 41.6098 57.0834 39.9917 47.3748C34.6854 45.4041 29.9667 41.7069 26.7847 36.5H26.7667Z" fill="url(#paint0_linear_124_1763)"/>
<g style="mix-blend-mode:multiply">
<path d="M39.2685 6.76107C35.3182 6.68875 31.4221 7.01418 27.6977 7.75543C21.8762 16.0358 21.153 27.3082 26.7667 36.4925C29.9486 41.6994 34.6673 45.3966 39.9736 47.3672C39.5397 44.7638 39.2685 41.9254 39.2685 38.8971V6.76107Z" fill="#4D4D4D"/>
</g>
<path d="M39.2685 6.76107C35.3182 6.68875 31.4221 7.01418 27.6977 7.75543C21.8762 16.0358 21.153 27.3082 26.7667 36.4925C29.9486 41.6994 34.6673 45.3966 39.9736 47.3672C39.5397 44.7638 39.2685 41.9254 39.2685 38.8971V6.76107Z" fill="#0DFFEB"/>
</g>
<defs>
<linearGradient id="paint0_linear_124_1763" x1="23.1056" y1="64.3151" x2="23.1056" y2="14.5246" gradientUnits="userSpaceOnUse">
<stop stop-color="#5D19FF"/>
<stop offset="1" stop-color="#008EFF"/>
</linearGradient>
<clipPath id="clip0_124_1763">
<rect width="348" height="63.9285" fill="white" transform="translate(0 0.496094)"/>
</clipPath>
</defs>
</svg>
