<svg width="175" height="32" viewBox="0 0 175 32" fill="none" xmlns="http://www.w3.org/2000/svg">
<path d="M40.1677 19.6176C40.8237 18.4006 41.715 17.455 42.8461 16.7809C43.9772 16.1067 45.235 15.7674 46.6239 15.7674C47.651 15.7674 48.6599 15.9891 49.6598 16.437C50.6552 16.8849 51.4514 17.4776 52.0396 18.2196V10.5916H55.3198V31.7293H52.0396V29.3631C51.5057 30.1232 50.7728 30.7521 49.8317 31.2452C48.8907 31.7384 47.8139 31.9872 46.5968 31.9872C45.2304 31.9872 43.9772 31.6389 42.8506 30.9466C41.7195 30.2544 40.8282 29.2862 40.1722 28.0375C39.5162 26.7933 39.1904 25.3817 39.1904 23.8072C39.1904 22.2327 39.5162 20.8347 40.1722 19.6176H40.1677ZM51.37 21.0428C50.9221 20.2465 50.3384 19.6357 49.6145 19.2195C48.8907 18.8033 48.1125 18.5906 47.2755 18.5906C46.4385 18.5906 45.6603 18.7942 44.9364 19.2014C44.2125 19.6086 43.6288 20.2103 43.1809 20.9976C42.733 21.7848 42.5113 22.7214 42.5113 23.8072C42.5113 24.893 42.733 25.8386 43.1809 26.6575C43.6288 27.4764 44.217 28.0963 44.9499 28.5261C45.6829 28.9514 46.4565 29.1686 47.2709 29.1686C48.0853 29.1686 48.8861 28.9604 49.61 28.5397C50.3339 28.1234 50.9176 27.5081 51.3655 26.7028C51.8134 25.8974 52.0351 24.9519 52.0351 23.866C52.0351 22.7802 51.8134 21.8436 51.3655 21.0428H51.37Z" fill="#002340"/>
<path d="M59.4916 19.6181C60.1476 18.401 61.0389 17.4554 62.17 16.7813C63.3011 16.1071 64.5498 15.7678 65.9161 15.7678C67.1513 15.7678 68.2281 16.0121 69.1511 16.4962C70.074 16.9804 70.807 17.5821 71.3589 18.306V15.8176H74.6346V31.7298H71.3589V29.3907C70.807 30.1327 70.0559 30.748 69.1058 31.2456C68.1557 31.7388 67.0744 31.9876 65.8573 31.9876C64.5091 31.9876 63.2739 31.6393 62.1519 30.947C61.0298 30.2548 60.1431 29.2866 59.487 28.0379C58.831 26.7937 58.5052 25.3821 58.5052 23.8076C58.5052 22.2331 58.831 20.8351 59.487 19.6181H59.4916ZM70.6939 21.0432C70.2459 20.2469 69.6623 19.6361 68.9384 19.2199C68.2145 18.8037 67.4363 18.591 66.5993 18.591C65.7623 18.591 64.9841 18.7946 64.2602 19.2018C63.5363 19.609 62.9527 20.2107 62.5048 20.998C62.0569 21.7852 61.8352 22.7218 61.8352 23.8076C61.8352 24.8934 62.0569 25.839 62.5048 26.6579C62.9527 27.4769 63.5409 28.0967 64.2738 28.5265C65.0068 28.9518 65.7804 29.169 66.5948 29.169C67.4092 29.169 68.21 28.9608 68.9339 28.5401C69.6578 28.1238 70.2414 27.5085 70.6893 26.7032C71.1373 25.8979 71.3589 24.9523 71.3589 23.8664C71.3589 22.7806 71.1373 21.844 70.6893 21.0432H70.6939Z" fill="#002340"/>
<path d="M82.7058 18.4187V27.3679C82.7058 27.956 82.8415 28.3813 83.1175 28.6347C83.3935 28.8926 83.864 29.0193 84.5291 29.0193H86.5244V31.7293H83.9591C82.4932 31.7293 81.3757 31.3855 80.5975 30.7023C79.8193 30.0191 79.4302 28.9061 79.4302 27.3679V18.4187H77.5752V15.7674H79.4302V10.5916H82.7058V15.7674H86.5244V18.4187H82.7058Z" fill="#002340"/>
<path d="M89.4194 19.6174C90.0754 18.4003 90.9667 17.4547 92.0978 16.7806C93.2289 16.1065 94.4776 15.7672 95.844 15.7672C97.0792 15.7672 98.1559 16.0115 99.0789 16.4956C100.002 16.9797 100.735 17.5814 101.287 18.3053V15.731H104.562V31.7291H101.287V29.39C100.735 30.132 99.9838 30.7473 99.0337 31.245C98.0836 31.7381 97.0022 31.987 95.7852 31.987C94.4369 31.987 93.2018 31.6386 92.0797 30.9464C90.9577 30.2541 90.0709 29.2859 89.4149 28.0372C88.7589 26.793 88.4331 25.3814 88.4331 23.8069C88.4331 22.2325 88.7589 20.8344 89.4149 19.6174H89.4194ZM100.622 21.0426C100.174 20.2463 99.5902 19.6355 98.8663 19.2192C98.1424 18.803 97.3642 18.5904 96.5272 18.5904C95.6902 18.5904 94.912 18.7939 94.1881 19.2011C93.4642 19.6083 92.8805 20.2101 92.4326 20.9973C91.9847 21.7845 91.763 22.7211 91.763 23.8069C91.763 24.8928 91.9847 25.8384 92.4326 26.6573C92.8805 27.4762 93.4687 28.096 94.2017 28.5258C94.9346 28.9511 95.7083 29.1683 96.5227 29.1683C97.337 29.1683 98.1379 28.9602 98.8617 28.5394C99.5856 28.1232 100.169 27.5079 100.617 26.7025C101.065 25.8972 101.287 24.9516 101.287 23.8658C101.287 22.7799 101.065 21.8434 100.617 21.0426H100.622Z" fill="#002340"/>
<path d="M112.092 10.5916V31.7293H108.843V10.5916H112.092Z" fill="#002340"/>
<path d="M116.846 13.4821C116.53 13.1654 116.376 12.7763 116.376 12.3103C116.376 11.8443 116.534 11.4552 116.846 11.1385C117.163 10.8218 117.552 10.668 118.018 10.668C118.484 10.668 118.851 10.8263 119.167 11.1385C119.484 11.4552 119.638 11.8443 119.638 12.3103C119.638 12.7763 119.479 13.1654 119.167 13.4821C118.851 13.7988 118.47 13.9527 118.018 13.9527C117.566 13.9527 117.163 13.7943 116.846 13.4821Z" fill="#002340"/>
<path d="M119.616 15.731H116.367V31.7291H119.616V15.731Z" fill="#002340"/>
<path d="M127.683 18.4193V27.3685C127.683 27.9566 127.818 28.3819 128.094 28.6353C128.37 28.8932 128.841 29.0199 129.506 29.0199H131.501V31.73H128.936C127.47 31.73 126.352 31.3861 125.574 30.7029C124.796 30.0198 124.407 28.9068 124.407 27.3685V18.4193H122.552V15.768H124.407V10.6646H127.683V15.768H131.501V18.4193H127.683Z" fill="#002340"/>
<path d="M134.967 13.5277C134.655 13.2156 134.496 12.8265 134.496 12.365C134.496 11.9035 134.655 11.5144 134.967 11.2022C135.279 10.89 135.668 10.7317 136.13 10.7317C136.591 10.7317 136.958 10.89 137.27 11.2022C137.582 11.5144 137.74 11.9035 137.74 12.365C137.74 12.8265 137.582 13.2156 137.27 13.5277C136.958 13.8399 136.578 13.9983 136.13 13.9983C135.682 13.9983 135.279 13.8399 134.967 13.5277Z" fill="#002340"/>
<path d="M137.745 15.731H134.496V31.7291H137.745V15.731Z" fill="#002340"/>
<path d="M141.92 19.6C142.576 18.3739 143.481 17.4283 144.643 16.7632C145.802 16.0981 147.132 15.7678 148.634 15.7678C150.534 15.7678 152.104 16.2203 153.353 17.1206C154.597 18.021 155.438 19.3104 155.877 20.9844H152.371C152.086 20.2062 151.629 19.5954 151.005 19.1611C150.376 18.7222 149.588 18.5051 148.638 18.5051C147.308 18.5051 146.249 18.9756 145.462 19.9167C144.675 20.8577 144.281 22.1743 144.281 23.8619C144.281 25.5495 144.675 26.8751 145.462 27.8252C146.249 28.7753 147.308 29.2504 148.638 29.2504C150.52 29.2504 151.765 28.4224 152.371 26.7711H155.877C155.42 28.3682 154.565 29.635 153.312 30.576C152.059 31.5171 150.498 31.9876 148.638 31.9876C147.136 31.9876 145.806 31.6483 144.648 30.9742C143.49 30.3001 142.58 29.3499 141.924 28.1238C141.268 26.8977 140.942 25.4771 140.942 23.8619C140.942 22.2467 141.268 20.8261 141.924 19.6H141.92Z" fill="#002340"/>
<path d="M159.022 19.6174C159.678 18.4003 160.57 17.4547 161.701 16.7806C162.832 16.1065 164.08 15.7672 165.447 15.7672C166.682 15.7672 167.759 16.0115 168.682 16.4956C169.605 16.9797 170.338 17.5814 170.89 18.3053V15.731H174.165V31.7291H170.89V29.39C170.338 30.132 169.587 30.7473 168.636 31.245C167.686 31.7381 166.605 31.987 165.388 31.987C164.04 31.987 162.805 31.6386 161.683 30.9464C160.56 30.2541 159.674 29.2859 159.018 28.0372C158.362 26.793 158.036 25.3814 158.036 23.8069C158.036 22.2325 158.362 20.8344 159.018 19.6174H159.022ZM170.225 21.0426C169.777 20.2463 169.193 19.6355 168.469 19.2192C167.745 18.803 166.967 18.5904 166.13 18.5904C165.293 18.5904 164.515 18.7939 163.791 19.2011C163.067 19.6083 162.483 20.2101 162.035 20.9973C161.588 21.7845 161.366 22.7211 161.366 23.8069C161.366 24.8928 161.588 25.8384 162.035 26.6573C162.483 27.4762 163.071 28.096 163.804 28.5258C164.537 28.9511 165.311 29.1683 166.125 29.1683C166.94 29.1683 167.741 28.9602 168.465 28.5394C169.188 28.1232 169.772 27.5079 170.22 26.7025C170.668 25.8972 170.89 24.9516 170.89 23.8658C170.89 22.7799 170.668 21.8434 170.22 21.0426H170.225Z" fill="#002340"/>
<path d="M31.4132 22.3639L17.736 0C16.157 0.963688 14.8585 2.21241 13.8541 3.63758C15.7182 3.26659 17.6682 3.10371 19.6453 3.1399V19.224C19.6453 20.7397 19.781 22.1603 19.9982 23.4633C23.6358 24.8161 27.8389 24.5492 31.4086 22.3639H31.4132Z" fill="#5D19FF"/>
<path d="M13.3926 18.0199C10.583 13.4231 10.9404 7.78127 13.8586 3.63696C9.0221 4.60065 4.7873 7.03023 2.29438 11.4777C-1.85445 18.5719 0.281046 28.0097 3.51596 32.0002H23.129C22.7807 31.5568 20.8216 28.3219 20.0118 23.4627C17.356 22.4764 14.9943 20.6259 13.4017 18.0199H13.3926Z" fill="url(#paint0_linear_124_1434)"/>
<g style="mix-blend-mode:multiply">
<path d="M19.6503 3.13506C17.6731 3.09886 15.7231 3.26174 13.8591 3.63274C10.9454 7.77705 10.5834 13.4189 13.3931 18.0157C14.9856 20.6217 17.3474 22.4722 20.0032 23.4585C19.786 22.1555 19.6503 20.7348 19.6503 19.2191V3.13506Z" fill="#4D4D4D"/>
</g>
<path d="M19.6503 3.13506C17.6731 3.09886 15.7231 3.26174 13.8591 3.63274C10.9454 7.77705 10.5834 13.4189 13.3931 18.0157C14.9856 20.6217 17.3474 22.4722 20.0032 23.4585C19.786 22.1555 19.6503 20.7348 19.6503 19.2191V3.13506Z" fill="#0DFFEB"/>
<defs>
<linearGradient id="paint0_linear_124_1434" x1="11.5603" y1="31.9413" x2="11.5603" y2="7.02118" gradientUnits="userSpaceOnUse">
<stop stop-color="#5D19FF"/>
<stop offset="1" stop-color="#008EFF"/>
</linearGradient>
</defs>
</svg>
